<svg width="14" height="15" viewBox="0 0 14 15" fill="none" xmlns="http://www.w3.org/2000/svg">
<path d="M9.50969 2.7141V4.07771H8.14289V5.43663H6.77749V6.81126H5.42548V8.18518H6.7739V9.54605H8.12513V10.9112H9.50028V12.2742H10.8735V13.6449H12.2366V15H13.5947V12.2825H12.2462V10.9244H10.873V9.55393H9.51091V8.19301H8.15199V6.81817H9.4997V5.45719H10.8634V4.08759H12.2367V2.72879H13.5912V0.000780004H12.2478V1.34449H10.8832V2.7141H9.50969Z" fill="white"/>
<path d="M8.17287 14.9972V12.288H6.82949V10.9256H5.46097V9.56025H4.09748V8.19264H2.72896V6.82004H4.08499V5.45223H5.44842V4.08639H6.81862V2.72328H8.16605V0H6.82122V1.35125H5.45622V2.71579H4.08827V4.07971H2.72264V5.44183H1.35966V6.80567H-0.000146866V8.18305H1.34734V9.54577H2.71003V10.9097H4.0773V12.2781H5.45112V13.6362H6.80931V14.9972H8.17287Z" fill="white"/>
</svg>
