<svg width="39" height="39" viewBox="0 0 39 39" fill="none" xmlns="http://www.w3.org/2000/svg">
<g id="x-square">
<path id="Icon" d="M14.625 14.625L24.375 24.375M24.375 14.625L14.625 24.375M12.675 34.125H26.325C29.0553 34.125 30.4204 34.125 31.4632 33.5937C32.3805 33.1263 33.1263 32.3805 33.5937 31.4632C34.125 30.4204 34.125 29.0553 34.125 26.325V12.675C34.125 9.94474 34.125 8.57962 33.5937 7.5368C33.1263 6.61951 32.3805 5.87373 31.4632 5.40634C30.4204 4.875 29.0553 4.875 26.325 4.875H12.675C9.94474 4.875 8.57962 4.875 7.5368 5.40634C6.61951 5.87373 5.87373 6.61951 5.40634 7.5368C4.875 8.57962 4.875 9.94474 4.875 12.675V26.325C4.875 29.0553 4.875 30.4204 5.40634 31.4632C5.87373 32.3805 6.61951 33.1263 7.5368 33.5937C8.57962 34.125 9.94474 34.125 12.675 34.125Z" stroke="white" stroke-width="2" stroke-linecap="round" stroke-linejoin="round"/>
</g>
</svg>
