<svg width="62" height="12" viewBox="0 0 62 12" fill="none" xmlns="http://www.w3.org/2000/svg">
<path d="M55.7156 11.8536V0.146331H58.8268C59.9222 0.146331 60.7134 0.380478 61.2003 0.84877C61.6921 1.31218 61.9477 2.07804 61.9671 3.14633C61.9817 3.82438 61.9915 4.46828 61.9964 5.07804C62.0012 5.68779 62.0012 6.29755 61.9964 6.90731C61.9915 7.51706 61.9817 8.16096 61.9671 8.83901C61.9477 9.91218 61.6921 10.6829 61.2003 11.1512C60.7134 11.6195 59.9222 11.8536 58.8268 11.8536H55.7156ZM57.9065 9.92194H58.8268C59.1335 9.92194 59.3672 9.85121 59.5279 9.70975C59.6885 9.56828 59.7713 9.36584 59.7762 9.10243C59.7908 8.58048 59.8005 8.06096 59.8054 7.54389C59.8151 7.02682 59.82 6.50974 59.82 5.99267C59.82 5.4756 59.8151 4.95853 59.8054 4.44145C59.8005 3.9195 59.7908 3.39999 59.7762 2.88292C59.7713 2.62438 59.6885 2.42682 59.5279 2.29023C59.3672 2.14877 59.1335 2.07804 58.8268 2.07804H57.9065V9.92194Z" fill="white"/>
<path d="M49.2254 11.8536V0.146331H54.5714V2.07804H51.4164V4.9317H54.4253V6.8634H51.4164V9.92194H54.5714V11.8536H49.2254Z" fill="white"/>
<path d="M41.8223 11.8536V0.146331H44.7875C45.8781 0.146331 46.6644 0.368282 47.1464 0.812185C47.6333 1.25121 47.8938 1.98048 47.9278 2.99999C47.9376 3.27316 47.9424 3.51218 47.9424 3.71706C47.9473 3.92194 47.9473 4.12682 47.9424 4.3317C47.9424 4.53657 47.9376 4.7756 47.9278 5.04877C47.9084 5.68292 47.8013 6.20243 47.6065 6.60731C47.4166 7.01218 47.1196 7.32194 46.7155 7.53657L48.0885 11.8536H45.7661L44.656 7.90243H44.0133V11.8536H41.8223ZM44.0133 5.97072H44.7875C45.0942 5.97072 45.3255 5.89999 45.4813 5.75853C45.6371 5.61706 45.7223 5.4195 45.7369 5.16584C45.7515 4.92682 45.7612 4.67804 45.7661 4.4195C45.771 4.15609 45.771 3.89511 45.7661 3.63657C45.7612 3.37316 45.7515 3.12194 45.7369 2.88292C45.7223 2.62438 45.6371 2.42682 45.4813 2.29023C45.3255 2.14877 45.0942 2.07804 44.7875 2.07804H44.0133V5.97072Z" fill="white"/>
<path d="M37.2309 12C36.1013 12 35.2858 11.7732 34.7843 11.3195C34.2877 10.8659 34.0272 10.1122 34.0029 9.05854C33.9931 8.50732 33.9858 7.98049 33.981 7.47805C33.9761 6.97561 33.9737 6.48049 33.9737 5.99268C33.9737 5.50488 33.9761 5.00976 33.981 4.50732C33.9858 4 33.9931 3.47317 34.0029 2.92683C34.0272 1.87805 34.2877 1.12927 34.7843 0.680488C35.2858 0.226829 36.1013 0 37.2309 0C38.341 0 39.1443 0.226829 39.641 0.680488C40.1425 1.12927 40.4102 1.87805 40.4443 2.92683C40.4687 3.47805 40.4857 4.00732 40.4954 4.51464C40.5052 5.01707 40.51 5.51463 40.51 6.00732C40.51 6.49512 40.5052 6.99024 40.4954 7.49268C40.4857 7.99024 40.4687 8.5122 40.4443 9.05854C40.4102 10.1122 40.1425 10.8659 39.641 11.3195C39.1443 11.7732 38.341 12 37.2309 12ZM37.2309 10.2146C37.5912 10.2146 37.8492 10.1341 38.005 9.97317C38.1657 9.8122 38.2485 9.54634 38.2533 9.17561C38.2777 8.63902 38.2972 8.10732 38.3118 7.58049C38.3264 7.04878 38.3337 6.51951 38.3337 5.99268C38.3337 5.46585 38.3264 4.93659 38.3118 4.40488C38.2972 3.87317 38.2777 3.34146 38.2533 2.80976C38.2485 2.4439 38.1657 2.18293 38.005 2.02683C37.8492 1.86585 37.5912 1.78537 37.2309 1.78537C36.8755 1.78537 36.615 1.86585 36.4495 2.02683C36.2888 2.18293 36.2036 2.4439 36.1938 2.80976C36.1695 3.34146 36.15 3.87317 36.1354 4.40488C36.1257 4.93659 36.1208 5.46585 36.1208 5.99268C36.1208 6.51951 36.1257 7.04878 36.1354 7.58049C36.15 8.10732 36.1695 8.63902 36.1938 9.17561C36.2036 9.54634 36.2888 9.8122 36.4495 9.97317C36.615 10.1341 36.8755 10.2146 37.2309 10.2146Z" fill="white"/>
<path d="M29.2378 11.8536V2.07804H27.2148V0.146331H33.4517V2.07804H31.4287V11.8536H29.2378Z" fill="white"/>
<path d="M18.8286 11.8536V0.146331H22.4364L23.3128 3.87804L24.1161 9.92194H24.788L24.3791 5.16584L24.2038 0.146331H26.4094V11.8536H22.6263L21.7499 8.0195L21.151 2.0634H20.4499L20.8297 7.36096L21.0196 11.8536H18.8286Z" fill="white"/>
<path d="M12.3384 11.8536V0.146331H17.6844V2.07804H14.5294V4.9317H17.5383V6.8634H14.5294V9.92194H17.6844V11.8536H12.3384Z" fill="white"/>
<path d="M0 11.8536V0.146331H3.95835L4.92237 4.58048L5.11225 9.92194H5.78415L5.95943 4.58048L6.93806 0.146331H10.8818V11.8536H8.6178V8.25365L9.04139 2.07804H8.35488L7.74141 8.39999L6.76278 11.8536H4.04598L3.15499 8.39999L2.52691 2.07804H1.85502L2.264 8.25365V11.8536H0Z" fill="white"/>
</svg>
