<svg width="485" height="71" viewBox="0 0 485 71" fill="none" xmlns="http://www.w3.org/2000/svg">
<g clip-path="url(#clip0_1051_5712)">
<g clip-path="url(#clip1_1051_5712)">
<path d="M443.407 69.9662C438.211 69.9662 433.015 69.9662 427.818 69.9662C426.375 69.9662 426.198 69.7844 426.444 68.3798C428.28 57.9359 430.123 47.4928 431.973 37.0505C433.995 25.5904 436.009 14.1352 438.016 2.6847C438.206 1.5816 438.552 1.182 439.738 1.19157C448.345 1.24661 456.955 1.17243 465.566 1.24182C470.266 1.28011 474.754 2.26595 478.662 5.07035C482.638 7.91303 484.527 11.9091 484.927 16.7091C485.238 20.4467 484.348 24.0503 483.719 27.6778C482.254 36.142 480.758 44.5967 479.231 53.0418C478.297 58.2103 476.319 62.8093 471.78 65.8745C468.574 68.0224 464.855 69.2721 461.008 69.4949C455.151 69.8825 449.274 69.9495 443.404 70.1505L443.407 69.9662ZM451.857 15.8285C449.543 28.9316 447.212 42.1496 444.876 55.3508C445.003 55.4068 445.135 55.4478 445.271 55.4729C448.874 55.4729 452.486 55.6021 456.079 55.3987C461.227 55.1092 462.984 53.4844 463.913 48.4069C465.277 40.8886 466.568 33.3536 467.842 25.8186C468.187 23.8763 468.411 21.9144 468.513 19.9442C468.58 18.3673 467.701 17.1757 466.235 16.5703C465.404 16.2257 464.501 15.8788 463.615 15.8524C459.76 15.7926 455.898 15.8285 451.857 15.8285Z" fill="white"/>
</g>
<g clip-path="url(#clip2_1051_5712)">
<path d="M392.71 55.4944H418.364C420.031 55.4944 420.128 55.5996 419.859 57.2435C419.228 61.072 418.576 64.9006 417.954 68.7291C417.814 69.6264 417.478 69.9997 416.488 69.9973C402.909 69.9638 389.329 69.9558 375.749 69.9734C374.306 69.9734 374.17 69.7843 374.418 68.3726C377.108 52.9819 379.798 37.588 382.485 22.191C383.637 15.6011 384.802 9.01367 385.923 2.41665C386.083 1.48105 386.462 1.19391 387.414 1.1963C400.994 1.2298 414.574 1.23778 428.153 1.22023C429.634 1.22023 429.717 1.34227 429.455 2.80668C428.76 6.69981 428.048 10.5882 427.419 14.4909C427.267 15.4336 426.857 15.6346 425.991 15.6298C417.683 15.6059 409.378 15.6155 401.07 15.6155H399.76C399.093 19.4584 398.441 23.2343 397.748 27.2303H421.321C422.969 27.2303 423.057 27.3188 422.781 28.9053C422.124 32.65 421.388 36.3804 420.819 40.1396C420.635 41.3527 420.128 41.5753 419.04 41.5753C411.568 41.537 404.096 41.5753 396.624 41.5274C395.481 41.5274 395.11 41.8313 394.929 42.9847C394.288 47.1075 393.486 51.2064 392.71 55.4944Z" fill="white"/>
</g>
<g clip-path="url(#clip3_1051_5712)">
<path d="M358.497 46.6148L363.571 55.832C365.843 59.9604 368.114 64.088 370.384 68.2149C371.151 69.6171 370.955 69.964 369.4 69.9664C364.431 69.9664 359.462 69.9497 354.492 69.9832C353.58 69.9832 353.047 69.6745 352.602 68.8705C349.082 62.5223 345.513 56.2053 341.991 49.8595C341.596 49.1416 341.175 48.8258 340.325 48.8449C337.639 48.9047 334.948 48.8665 332.148 48.8665C331.767 51.0559 331.393 53.1735 331.026 55.3079C330.248 59.8543 329.462 64.3744 328.702 68.9136C328.571 69.6936 328.226 69.9879 327.412 69.9808C322.888 69.9521 318.382 69.9808 313.868 69.964C312.606 69.964 312.401 69.7247 312.622 68.4589C313.869 61.3443 315.121 54.2304 316.38 47.1173C318.309 36.1103 320.233 25.0985 322.152 14.0819C322.844 10.1114 323.532 6.14091 324.216 2.17041C324.328 1.5052 324.602 1.21328 325.335 1.21328C334.517 1.23481 343.699 1.17499 352.878 1.25874C356.604 1.29463 360.276 1.90959 363.752 3.374C369.889 5.96304 373.391 11.1507 372.722 17.7788C372.121 23.3332 371.167 28.8432 369.865 34.275C368.524 40.0585 364.764 44.0066 359.264 46.2391C359.033 46.3348 358.807 46.4617 358.497 46.6148ZM334.712 34.5573C339.677 34.5573 344.563 34.6961 349.437 34.5023C352.209 34.3922 354.073 32.6503 354.676 29.8889C355.328 26.8859 355.911 23.8566 356.299 20.8105C356.707 17.6042 355.535 16.0464 352.335 15.8646C347.763 15.6037 343.172 15.6755 338.589 15.6468C338.351 15.6468 337.951 16.0273 337.905 16.2809C336.815 22.3755 335.765 28.4748 334.712 34.5573Z" fill="white"/>
</g>
<g clip-path="url(#clip4_1051_5712)">
<path d="M289.869 0C294.793 0.162712 299.567 0.794419 304.039 2.97429C311.759 6.7406 315.595 14.0004 314.168 22.4734C312.565 31.9953 310.889 41.5044 309.139 51.0007C308.097 56.6526 305.72 61.6297 301.06 65.25C297.622 67.9204 293.65 69.3513 289.419 70.0859C283.516 71.1101 277.587 71.4283 271.67 70.2295C266.979 69.2724 262.822 67.2839 259.729 63.4817C256.419 59.4139 255.236 54.7096 256.09 49.5746C257.7 39.8996 259.382 30.2366 261.136 20.5855C263.141 9.57849 269.848 2.91925 280.847 1.02892C283.83 0.516851 286.862 0.332603 289.869 0ZM280.795 56.6406C282.549 56.4875 283.764 56.4325 284.962 56.2674C289.695 55.6165 292.631 53.0275 293.422 48.6366C295.027 39.7385 296.585 30.8324 298.096 21.9183C298.713 18.3099 297.196 16.0439 293.645 15.1586C290.725 14.4384 287.679 14.4072 284.745 15.0676C280.247 16.0463 277.518 18.7502 276.759 23.4186C275.949 28.4053 274.992 33.368 274.125 38.3451C273.454 42.1999 272.765 46.0524 272.192 49.9216C271.753 52.8935 273.023 54.9609 275.851 55.7673C277.618 56.2697 279.483 56.4181 280.795 56.6406Z" fill="white"/>
</g>
<g clip-path="url(#clip5_1051_5712)">
<path d="M223.638 15.6181H207.244C205.646 15.6181 205.556 15.5223 205.837 13.9C206.511 10.0045 207.213 6.11135 207.88 2.21344C208.004 1.49559 208.313 1.20605 209.07 1.20605C225.805 1.2252 242.538 1.2252 259.269 1.20605C260.346 1.20605 260.589 1.62719 260.417 2.58911C259.703 6.52053 258.988 10.4496 258.353 14.3905C258.186 15.4051 257.738 15.6492 256.769 15.6396C251.609 15.5941 246.449 15.6181 241.292 15.6181H239.949C239.497 18.1616 239.046 20.6597 238.608 23.1603C236.442 35.5567 234.278 47.9555 232.117 60.3568C231.627 63.166 231.094 65.9703 230.66 68.7867C230.517 69.7008 230.146 69.9831 229.251 69.9831C224.774 69.9496 220.297 69.9688 215.821 69.9664C214.411 69.9664 214.24 69.7725 214.488 68.344C215.407 63.0224 216.335 57.7031 217.273 52.3863C219.364 40.4748 221.453 28.5641 223.541 16.6542C223.588 16.3551 223.6 16.0488 223.638 15.6181Z" fill="white"/>
</g>
<g clip-path="url(#clip6_1051_5712)">
<path d="M177.834 47.5839C178.354 44.6694 178.88 41.7573 179.392 38.8405C181.53 26.6323 183.661 14.4217 185.785 2.20867C185.916 1.4645 186.223 1.20129 186.976 1.20608C191.416 1.23718 195.855 1.20608 200.293 1.22283C201.484 1.22283 201.665 1.42382 201.448 2.67527C200.605 7.54468 199.743 12.4117 198.891 17.2715L191.697 58.4042C191.081 61.9241 190.457 65.4439 189.864 68.9686C189.74 69.7175 189.388 69.9807 188.642 69.9784C182.875 69.9576 177.108 69.9576 171.341 69.9784C170.493 69.9784 170.258 69.5357 170.041 68.8609C167.165 59.9723 164.282 51.0846 161.393 42.1976C159.645 36.8185 157.893 31.4419 155.959 26.0652C155.507 28.6662 155.047 31.2648 154.602 33.8658C152.603 45.4838 150.612 57.1025 148.628 68.7221C148.475 69.6194 148.137 70.0023 147.154 69.9903C142.791 69.9377 138.429 69.9712 134.057 69.964C132.774 69.964 132.581 69.7247 132.8 68.478C136.178 49.2652 139.552 30.0532 142.92 10.842C143.396 8.06871 143.911 5.30021 144.349 2.51974C144.496 1.57457 144.811 1.18215 145.863 1.19411C151.402 1.25393 156.942 1.24436 162.481 1.19411C163.412 1.19411 163.788 1.48364 164.055 2.37378C168.471 17.1551 172.91 31.9276 177.373 46.6913C177.461 46.9809 177.563 47.2656 177.658 47.5504L177.834 47.5839Z" fill="white"/>
</g>
<g clip-path="url(#clip7_1051_5712)">
<path d="M106.715 15.6179C106.046 19.4751 105.389 23.2749 104.703 27.2327H128.343C129.869 27.2327 130.01 27.381 129.755 28.8765C129.081 32.7745 128.362 36.6628 127.71 40.5631C127.555 41.4987 126.995 41.5609 126.255 41.5609C118.666 41.5466 111.078 41.5729 103.491 41.5274C102.451 41.5274 102.082 41.7882 101.91 42.8483C101.263 46.8658 100.482 50.8595 99.7672 54.8627C99.7527 55.0722 99.7527 55.2825 99.7672 55.492H125.321C126.972 55.492 127.086 55.6116 126.81 57.2579C126.157 61.1582 125.467 65.0513 124.838 68.9564C124.714 69.7197 124.395 69.9758 123.648 69.9734C109.913 69.9622 96.182 69.9622 82.454 69.9734C81.3825 69.9734 81.1539 69.4948 81.3206 68.5496C83.1588 58.0659 84.9931 47.5789 86.8234 37.0887C88.8458 25.5521 90.8634 14.0163 92.8762 2.48125C93.0334 1.57197 93.3239 1.19391 94.3049 1.1963C107.925 1.2282 121.545 1.23538 135.165 1.21784C136.529 1.21784 136.648 1.34944 136.422 2.65353C135.737 6.58495 135.008 10.5116 134.372 14.4526C134.225 15.369 133.877 15.649 132.979 15.649C124.671 15.6203 116.364 15.6322 108.054 15.6322L106.715 15.6179Z" fill="white"/>
</g>
<g clip-path="url(#clip8_1051_5712)">
<path d="M60.2618 35.775C59.9022 36.3852 59.5475 36.9953 59.1831 37.6031C54.7384 45.0815 50.2936 52.5607 45.8488 60.0407C45.3845 60.8255 44.8702 61.1581 43.9439 61.1485C39.4198 61.1079 34.9147 61.1007 30.4001 61.1485C29.3786 61.1605 29.0524 60.7944 28.8642 59.8277C27.2903 51.8213 25.6616 43.8245 23.8639 35.7965C23.5091 37.2538 23.1495 38.7062 22.7995 40.1658C20.5303 49.7036 18.2468 59.2391 16.0204 68.7864C15.7966 69.7436 15.3704 69.9829 14.4703 69.9829C10.07 69.947 5.66016 69.9709 1.26936 69.9637C-0.0354994 69.9637 -0.159318 69.7747 0.143085 68.4682C5.33236 46.5004 10.5161 24.5295 15.6942 2.55535C15.9323 1.58386 16.2586 1.17947 17.3301 1.19383C21.7748 1.25764 26.2133 1.25764 30.6453 1.19383C31.6835 1.17947 32.0978 1.49054 32.2907 2.51467C34.0289 11.7414 35.81 20.961 37.5792 30.1829C38.4173 34.5403 39.2602 38.8976 40.1508 43.5254C40.6699 42.628 41.0651 41.9533 41.4509 41.2713C48.753 28.2926 56.0551 15.3107 63.3573 2.32564C63.793 1.53361 64.2907 1.19622 65.2193 1.19622C69.6577 1.24169 74.0962 1.21297 78.5346 1.21776C79.7966 1.21776 79.9061 1.36133 79.7609 2.60321C78.4338 14.0537 77.1083 25.5042 75.7844 36.9546C74.57 47.4209 73.3485 57.8863 72.1198 68.3509C71.9317 69.9613 71.915 69.9613 70.3292 69.9613C66.0813 69.9613 61.8325 69.9613 57.583 69.9613C56.2877 69.9613 56.1067 69.7675 56.271 68.4945C57.5172 58.7988 58.768 49.103 60.0237 39.4073C60.1761 38.2228 60.3094 37.036 60.4523 35.8492L60.2618 35.775Z" fill="white"/>
</g>
</g>
<defs>
<clipPath id="clip0_1051_5712">
<rect width="485" height="71" fill="white"/>
</clipPath>
<clipPath id="clip1_1051_5712">
<rect width="58.6393" height="68.9591" fill="white" transform="translate(426.352 1.19141)"/>
</clipPath>
<clipPath id="clip2_1051_5712">
<rect width="55.2527" height="68.801" fill="white" transform="translate(374.318 1.19629)"/>
</clipPath>
<clipPath id="clip3_1051_5712">
<rect width="60.2585" height="68.7708" fill="white" transform="translate(312.545 1.2124)"/>
</clipPath>
<clipPath id="clip4_1051_5712">
<rect width="58.6396" height="71.0002" fill="white" transform="translate(255.822)"/>
</clipPath>
<clipPath id="clip5_1051_5712">
<rect width="54.7542" height="68.7771" fill="white" transform="translate(205.713 1.20605)"/>
</clipPath>
<clipPath id="clip6_1051_5712">
<rect width="68.8045" height="68.7967" fill="white" transform="translate(132.723 1.19385)"/>
</clipPath>
<clipPath id="clip7_1051_5712">
<rect width="55.2417" height="68.7771" fill="white" transform="translate(81.2715 1.19629)"/>
</clipPath>
<clipPath id="clip8_1051_5712">
<rect width="79.8045" height="68.7895" fill="white" transform="translate(0.00585938 1.19336)"/>
</clipPath>
</defs>
</svg>
