<svg width="105" height="17" viewBox="0 0 105 17" fill="none" xmlns="http://www.w3.org/2000/svg">
<g id="Vector">
<path d="M13.615 8.50037C13.5378 8.63326 13.4617 8.76615 13.3835 8.89851C12.4293 10.5272 11.475 12.1561 10.5208 13.7851C10.4212 13.9561 10.3107 14.0285 10.1119 14.0264C9.14064 14.0176 8.17348 14.016 7.20428 14.0264C6.98498 14.029 6.91495 13.9493 6.87456 13.7388C6.53667 11.9951 6.18702 10.2534 5.80107 8.50506C5.72491 8.82243 5.64772 9.13875 5.57258 9.45664C5.08542 11.5339 4.59519 13.6106 4.11723 15.6899C4.06918 15.8983 3.97768 15.9504 3.78445 15.9504C2.83979 15.9426 1.89307 15.9478 0.950449 15.9463C0.67032 15.9463 0.643739 15.9051 0.708659 15.6205C1.8227 10.8362 2.93555 6.05124 4.0472 1.26555C4.09832 1.05397 4.16835 0.965901 4.39839 0.969027C5.3526 0.982924 6.30544 0.982924 7.25693 0.969027C7.4798 0.965901 7.56875 1.03365 7.61016 1.25669C7.98332 3.26616 8.36569 5.27407 8.7455 7.2825C8.92543 8.23147 9.10639 9.18044 9.29757 10.1883C9.40901 9.99288 9.49387 9.84593 9.57668 9.6974C11.1443 6.8708 12.7119 4.04351 14.2796 1.21552C14.3731 1.04303 14.48 0.969548 14.6793 0.969548C15.6322 0.97945 16.585 0.973196 17.5379 0.974239C17.8088 0.974239 17.8323 1.00551 17.8011 1.27597C17.5162 3.76974 17.2317 6.26352 16.9474 8.75729C16.6867 11.0367 16.4245 13.3159 16.1607 15.595C16.1203 15.9457 16.1168 15.9457 15.7763 15.9457C14.8644 15.9457 13.9522 15.9457 13.04 15.9457C12.7619 15.9457 12.723 15.9035 12.7583 15.6263C13.0258 13.5147 13.2944 11.4031 13.5639 9.29144C13.5966 9.03349 13.6253 8.77501 13.6559 8.51653L13.615 8.50037Z" fill="#CF493E"/>
<path d="M38.8558 11.0721C38.9672 10.4374 39.0802 9.80319 39.1901 9.16794C39.6491 6.50914 40.1066 3.84982 40.5626 1.18999C40.5907 1.02791 40.6567 0.970591 40.8182 0.971633C41.7716 0.978408 42.7244 0.971633 43.6773 0.975281C43.9328 0.975281 43.9717 1.01906 43.9252 1.29161C43.7442 2.3521 43.5592 3.41208 43.3762 4.47049L41.8319 13.4287C41.6995 14.1953 41.5656 14.9618 41.4383 15.7295C41.4117 15.8926 41.336 15.9499 41.176 15.9494C39.9379 15.9449 38.6999 15.9449 37.4618 15.9494C37.2798 15.9494 37.2292 15.853 37.1827 15.706C36.5652 13.7702 35.9463 11.8346 35.326 9.89908C34.9508 8.72758 34.5746 7.55661 34.1595 6.38563C34.0624 6.9521 33.9637 7.51805 33.8681 8.08451C33.4391 10.6148 33.0116 13.1452 32.5856 15.6758C32.5529 15.8712 32.4803 15.9546 32.2692 15.952C31.3327 15.9405 30.3962 15.9478 29.4576 15.9463C29.1821 15.9463 29.1407 15.8941 29.1877 15.6226C29.9129 11.4383 30.6371 7.25418 31.3603 3.07022C31.4625 2.46623 31.5729 1.86328 31.667 1.25773C31.6987 1.05189 31.7662 0.966422 31.9921 0.969027C33.1811 0.982056 34.3706 0.979971 35.5597 0.969027C35.7595 0.969027 35.8403 1.03208 35.8975 1.22594C36.8456 4.44513 37.7986 7.6624 38.7566 10.8778C38.7755 10.9408 38.7975 11.0028 38.8179 11.0648L38.8558 11.0721Z" fill="#CF493E"/>
<path d="M77.6408 10.8611L78.7302 12.8685C79.2178 13.7676 79.7053 14.6665 80.1927 15.5653C80.3573 15.8707 80.3154 15.9463 79.9816 15.9468C78.9147 15.9468 77.8479 15.9431 76.781 15.9504C76.5852 15.9504 76.4707 15.8832 76.3751 15.7081C75.6196 14.3255 74.8534 12.9498 74.0973 11.5677C74.0125 11.4114 73.922 11.3426 73.7395 11.3468C73.1629 11.3598 72.5852 11.3515 71.9841 11.3515C71.9023 11.8283 71.822 12.2895 71.7433 12.7543C71.5761 13.7445 71.4075 14.7289 71.2444 15.7175C71.2163 15.8874 71.1422 15.9515 70.9673 15.9499C69.9961 15.9436 69.0289 15.9499 68.0597 15.9463C67.7888 15.9463 67.7448 15.8941 67.7924 15.6185C68.0599 14.069 68.3288 12.5197 68.599 10.9705C69.0131 8.57333 69.4261 6.1751 69.8381 3.77582C69.9867 2.9111 70.1344 2.04637 70.2813 1.18165C70.3054 1.03677 70.3641 0.973196 70.5216 0.973196C72.4927 0.977887 74.4638 0.964858 76.4344 0.983098C77.2345 0.990915 78.0227 1.12484 78.769 1.44378C80.0863 2.00764 80.8383 3.13744 80.6947 4.58097C80.5656 5.79064 80.3607 6.99065 80.0812 8.17362C79.7934 9.43319 78.9863 10.2931 77.8055 10.7793C77.7559 10.8001 77.7073 10.8277 77.6408 10.8611ZM72.5346 8.23512C73.6004 8.23512 74.6494 8.26534 75.6958 8.22313C76.2908 8.19916 76.6911 7.81978 76.8204 7.2184C76.9605 6.56438 77.0857 5.90463 77.169 5.24124C77.2564 4.54292 77.0049 4.20367 76.3179 4.16406C75.3364 4.10726 74.3509 4.1229 73.3668 4.11664C73.3157 4.11664 73.2298 4.1995 73.2201 4.25474C72.986 5.58205 72.7606 6.91041 72.5346 8.23512Z" fill="#CF493E"/>
<path d="M95.8692 15.9468C94.7537 15.9468 93.6382 15.9468 92.5224 15.9468C92.2126 15.9468 92.1748 15.9072 92.2275 15.6013C92.6218 13.3267 93.0174 11.0523 93.4145 8.77813C93.8486 6.28228 94.2811 3.78746 94.7118 1.29369C94.7527 1.05345 94.8269 0.966422 95.0814 0.968506C96.9294 0.980492 98.7778 0.964337 100.626 0.97945C101.635 0.987788 102.599 1.20249 103.438 1.81326C104.291 2.43236 104.697 3.30264 104.783 4.34802C104.85 5.16202 104.658 5.94684 104.523 6.73687C104.209 8.58028 103.888 10.4216 103.56 12.2608C103.36 13.3865 102.935 14.3881 101.96 15.0556C101.272 15.5234 100.474 15.7956 99.6478 15.8441C98.3903 15.9285 97.1287 15.9431 95.8686 15.9869L95.8692 15.9468ZM97.6833 4.15625C97.1865 7.00995 96.686 9.88866 96.1846 12.7637C96.2117 12.7759 96.2402 12.7848 96.2694 12.7903C97.0428 12.7903 97.8183 12.8184 98.5897 12.7741C99.6949 12.7111 100.072 12.3572 100.271 11.2514C100.564 9.61402 100.841 7.97299 101.115 6.33196C101.189 5.90896 101.237 5.48168 101.259 5.05259C101.273 4.70916 101.085 4.44964 100.77 4.3178C100.591 4.24275 100.398 4.16719 100.208 4.16146C99.38 4.14843 98.5508 4.15625 97.6833 4.15625Z" fill="#CF493E"/>
<path d="M62.9075 0.708984C63.9646 0.744421 64.9895 0.881999 65.9495 1.35675C67.6068 2.177 68.4303 3.75811 68.1241 5.60342C67.7799 7.67716 67.4201 9.74813 67.0445 11.8163C66.8206 13.0472 66.3104 14.1312 65.3101 14.9196C64.5719 15.5012 63.7192 15.8128 62.8109 15.9728C61.5436 16.1959 60.2708 16.2652 59.0005 16.0041C57.9935 15.7956 57.101 15.3626 56.4369 14.5345C55.7264 13.6486 55.4723 12.6241 55.6558 11.5057C56.0014 9.39862 56.3625 7.29413 56.739 5.19225C57.1694 2.79506 58.6095 1.34476 60.9706 0.93307C61.6111 0.821548 62.2619 0.781421 62.9075 0.708984ZM60.9594 13.0446C61.3361 13.0113 61.5968 12.9993 61.8539 12.9633C62.8702 12.8216 63.5005 12.2577 63.6702 11.3014C64.0147 9.36353 64.3492 7.4239 64.6736 5.48252C64.806 4.69666 64.4804 4.20315 63.7182 4.01033C63.0913 3.85348 62.4373 3.8467 61.8074 3.99053C60.8418 4.20367 60.256 4.79255 60.0929 5.80927C59.9191 6.8953 59.7136 7.97612 59.5275 9.06007C59.3834 9.8996 59.2357 10.7386 59.1125 11.5813C59.0184 12.2285 59.2909 12.6788 59.8982 12.8544C60.2775 12.9638 60.6777 12.9961 60.9594 13.0446Z" fill="#CF493E"/>
<path d="M84.9855 12.795H90.493C90.8509 12.795 90.8718 12.8179 90.8141 13.1759C90.6786 14.0097 90.5385 14.8435 90.4051 15.6774C90.3749 15.8728 90.3029 15.9541 90.0902 15.9535C87.1751 15.9463 84.2598 15.9445 81.3444 15.9483C81.0346 15.9483 81.0055 15.9072 81.0586 15.5997C81.6363 12.2478 82.2136 8.89521 82.7905 5.54193C83.0379 4.10674 83.2879 2.67207 83.5287 1.23532C83.5629 1.03156 83.6442 0.969027 83.8487 0.969548C86.7641 0.976844 89.6794 0.978581 92.5945 0.97476C92.9125 0.97476 92.9304 1.00134 92.8741 1.32027C92.7249 2.16814 92.572 3.01498 92.4371 3.86494C92.4044 4.07026 92.3164 4.11404 92.1304 4.11299C90.3468 4.10778 88.5638 4.10987 86.7803 4.10987H86.4992C86.356 4.9468 86.216 5.76914 86.0672 6.63942H91.1279C91.4817 6.63942 91.5006 6.65871 91.4413 7.00421C91.3002 7.81978 91.1422 8.63222 91.0201 9.45091C90.9807 9.71512 90.8718 9.76359 90.6382 9.76359C89.0341 9.75525 87.43 9.76359 85.8259 9.75316C85.5806 9.75316 85.5008 9.81935 85.462 10.0705C85.3244 10.9684 85.1522 11.8611 84.9855 12.795Z" fill="#CF493E"/>
<path d="M23.5877 4.11039C23.4441 4.95045 23.303 5.778 23.1558 6.63994H28.2308C28.5585 6.63994 28.5886 6.67225 28.5339 6.99796C28.3893 7.84688 28.2349 8.69371 28.0948 9.54315C28.0616 9.74691 27.9415 9.76046 27.7825 9.76046C26.1534 9.75733 24.5242 9.76307 22.8956 9.75316C22.6722 9.75316 22.593 9.80997 22.5562 10.0408C22.4171 10.9158 22.2494 11.7856 22.0961 12.6574C22.093 12.703 22.093 12.7488 22.0961 12.7945H27.5821C27.9364 12.7945 27.9609 12.8205 27.9016 13.1791C27.7615 14.0285 27.6133 14.8764 27.4783 15.7269C27.4518 15.8931 27.3833 15.9489 27.2228 15.9483C24.2742 15.9459 21.3264 15.9459 18.3793 15.9483C18.1492 15.9483 18.1002 15.8441 18.1359 15.6383C18.5306 13.355 18.9244 11.0711 19.3173 8.78647C19.7515 6.27394 20.1846 3.76158 20.6167 1.24939C20.6505 1.05137 20.7128 0.969027 20.9234 0.969548C23.8474 0.976497 26.7714 0.97806 29.6954 0.974239C29.9883 0.974239 30.0138 1.0029 29.9653 1.28692C29.818 2.14313 29.6616 2.9983 29.5251 3.8566C29.4934 4.05619 29.4188 4.11716 29.2261 4.11716C27.4426 4.11091 25.659 4.11351 23.875 4.11351L23.5877 4.11039Z" fill="#CF493E"/>
<path d="M48.6889 4.11039H45.1694C44.8264 4.11039 44.807 4.08954 44.8673 3.73622C45.012 2.88782 45.1628 2.03995 45.3059 1.19103C45.3325 1.03469 45.3989 0.971633 45.5615 0.971633C49.1541 0.975802 52.7463 0.975802 56.3383 0.971633C56.5693 0.971633 56.6215 1.06335 56.5847 1.27285C56.4313 2.12906 56.2779 2.98475 56.1415 3.84305C56.1057 4.06401 56.0096 4.11716 55.8015 4.11508C54.6938 4.10518 53.5861 4.11039 52.4788 4.11039H52.1905C52.0934 4.66435 51.9968 5.20841 51.9027 5.75298C51.4375 8.45278 50.9731 11.1531 50.5092 13.8539C50.4039 14.4657 50.2894 15.0765 50.1964 15.6899C50.1657 15.8889 50.086 15.9504 49.8938 15.9504C48.9327 15.9431 47.9717 15.9473 47.0107 15.9468C46.7081 15.9468 46.6713 15.9046 46.7244 15.5934C46.9217 14.4345 47.1211 13.276 47.3225 12.118C47.7713 9.52387 48.2198 6.92987 48.6679 4.33604C48.6782 4.2709 48.6807 4.20419 48.6889 4.11039Z" fill="#CF493E"/>
</g>
</svg>
