<svg width="63" height="12" viewBox="0 0 63 12" fill="none" xmlns="http://www.w3.org/2000/svg">
<g id="Vector">
<path d="M56.2156 11.8536V0.146331H59.3268C60.4222 0.146331 61.2134 0.380478 61.7003 0.84877C62.1921 1.31218 62.4477 2.07804 62.4671 3.14633C62.4817 3.82438 62.4915 4.46828 62.4964 5.07804C62.5012 5.68779 62.5012 6.29755 62.4964 6.90731C62.4915 7.51706 62.4817 8.16096 62.4671 8.83901C62.4477 9.91218 62.1921 10.6829 61.7003 11.1512C61.2134 11.6195 60.4222 11.8536 59.3268 11.8536H56.2156ZM58.4065 9.92194H59.3268C59.6335 9.92194 59.8672 9.85121 60.0279 9.70975C60.1885 9.56828 60.2713 9.36584 60.2762 9.10243C60.2908 8.58048 60.3005 8.06096 60.3054 7.54389C60.3151 7.02682 60.32 6.50974 60.32 5.99267C60.32 5.4756 60.3151 4.95853 60.3054 4.44145C60.3005 3.9195 60.2908 3.39999 60.2762 2.88292C60.2713 2.62438 60.1885 2.42682 60.0279 2.29023C59.8672 2.14877 59.6335 2.07804 59.3268 2.07804H58.4065V9.92194Z" fill="#D32F2F"/>
<path d="M49.7254 11.8536V0.146331H55.0714V2.07804H51.9164V4.9317H54.9253V6.8634H51.9164V9.92194H55.0714V11.8536H49.7254Z" fill="#D32F2F"/>
<path d="M42.3223 11.8536V0.146331H45.2875C46.3781 0.146331 47.1644 0.368282 47.6464 0.812185C48.1333 1.25121 48.3938 1.98048 48.4278 2.99999C48.4376 3.27316 48.4424 3.51218 48.4424 3.71706C48.4473 3.92194 48.4473 4.12682 48.4424 4.3317C48.4424 4.53657 48.4376 4.7756 48.4278 5.04877C48.4084 5.68292 48.3013 6.20243 48.1065 6.60731C47.9166 7.01218 47.6196 7.32194 47.2155 7.53657L48.5885 11.8536H46.2661L45.156 7.90243H44.5133V11.8536H42.3223ZM44.5133 5.97072H45.2875C45.5942 5.97072 45.8255 5.89999 45.9813 5.75853C46.1371 5.61706 46.2223 5.4195 46.2369 5.16584C46.2515 4.92682 46.2612 4.67804 46.2661 4.4195C46.271 4.15609 46.271 3.89511 46.2661 3.63657C46.2612 3.37316 46.2515 3.12194 46.2369 2.88292C46.2223 2.62438 46.1371 2.42682 45.9813 2.29023C45.8255 2.14877 45.5942 2.07804 45.2875 2.07804H44.5133V5.97072Z" fill="#D32F2F"/>
<path d="M37.7309 12C36.6013 12 35.7858 11.7732 35.2843 11.3195C34.7877 10.8659 34.5272 10.1122 34.5029 9.05854C34.4931 8.50732 34.4858 7.98049 34.481 7.47805C34.4761 6.97561 34.4737 6.48049 34.4737 5.99268C34.4737 5.50488 34.4761 5.00976 34.481 4.50732C34.4858 4 34.4931 3.47317 34.5029 2.92683C34.5272 1.87805 34.7877 1.12927 35.2843 0.680488C35.7858 0.226829 36.6013 0 37.7309 0C38.841 0 39.6443 0.226829 40.141 0.680488C40.6425 1.12927 40.9102 1.87805 40.9443 2.92683C40.9687 3.47805 40.9857 4.00732 40.9954 4.51464C41.0052 5.01707 41.01 5.51463 41.01 6.00732C41.01 6.49512 41.0052 6.99024 40.9954 7.49268C40.9857 7.99024 40.9687 8.5122 40.9443 9.05854C40.9102 10.1122 40.6425 10.8659 40.141 11.3195C39.6443 11.7732 38.841 12 37.7309 12ZM37.7309 10.2146C38.0912 10.2146 38.3492 10.1341 38.505 9.97317C38.6657 9.8122 38.7485 9.54634 38.7533 9.17561C38.7777 8.63902 38.7972 8.10732 38.8118 7.58049C38.8264 7.04878 38.8337 6.51951 38.8337 5.99268C38.8337 5.46585 38.8264 4.93659 38.8118 4.40488C38.7972 3.87317 38.7777 3.34146 38.7533 2.80976C38.7485 2.4439 38.6657 2.18293 38.505 2.02683C38.3492 1.86585 38.0912 1.78537 37.7309 1.78537C37.3755 1.78537 37.115 1.86585 36.9495 2.02683C36.7888 2.18293 36.7036 2.4439 36.6938 2.80976C36.6695 3.34146 36.65 3.87317 36.6354 4.40488C36.6257 4.93659 36.6208 5.46585 36.6208 5.99268C36.6208 6.51951 36.6257 7.04878 36.6354 7.58049C36.65 8.10732 36.6695 8.63902 36.6938 9.17561C36.7036 9.54634 36.7888 9.8122 36.9495 9.97317C37.115 10.1341 37.3755 10.2146 37.7309 10.2146Z" fill="#D32F2F"/>
<path d="M29.7378 11.8536V2.07804H27.7148V0.146331H33.9517V2.07804H31.9287V11.8536H29.7378Z" fill="#D32F2F"/>
<path d="M19.3286 11.8536V0.146331H22.9364L23.8128 3.87804L24.6161 9.92194H25.288L24.8791 5.16584L24.7038 0.146331H26.9094V11.8536H23.1263L22.2499 8.0195L21.651 2.0634H20.9499L21.3297 7.36096L21.5196 11.8536H19.3286Z" fill="#D32F2F"/>
<path d="M12.8384 11.8536V0.146331H18.1844V2.07804H15.0294V4.9317H18.0383V6.8634H15.0294V9.92194H18.1844V11.8536H12.8384Z" fill="#D32F2F"/>
<path d="M0.5 11.8536V0.146331H4.45835L5.42237 4.58048L5.61225 9.92194H6.28415L6.45943 4.58048L7.43806 0.146331H11.3818V11.8536H9.1178V8.25365L9.54139 2.07804H8.85488L8.24141 8.39999L7.26278 11.8536H4.54598L3.65499 8.39999L3.02691 2.07804H2.35502L2.764 8.25365V11.8536H0.5Z" fill="#D32F2F"/>
</g>
</svg>
