<svg width="212" height="27" viewBox="0 0 212 27" fill="none" xmlns="http://www.w3.org/2000/svg">
<path d="M22.3637 13.6015C22.2303 13.8269 22.0986 14.0523 21.9634 14.2767C20.3137 17.0387 18.6641 19.801 17.0144 22.5636C16.8421 22.8535 16.6512 22.9763 16.3074 22.9728C14.6283 22.9578 12.9563 22.9551 11.2807 22.9728C10.9016 22.9772 10.7805 22.842 10.7107 22.4849C10.1265 19.5279 9.52203 16.5745 8.8548 13.6095C8.72312 14.1477 8.58967 14.6841 8.45976 15.2232C7.61756 18.7458 6.77004 22.2675 5.94374 25.7937C5.86067 26.1472 5.70248 26.2356 5.36842 26.2356C3.73526 26.2223 2.09857 26.2311 0.468942 26.2285C-0.0153501 26.2285 -0.0613049 26.1587 0.0509307 25.6762C1.97691 17.5628 3.90082 9.44824 5.82267 1.33251C5.91104 0.973711 6.03212 0.824358 6.4298 0.829661C8.07946 0.853227 9.72676 0.853227 11.3717 0.829661C11.757 0.824358 11.9108 0.939245 11.9824 1.31749C12.6275 4.72521 13.2885 8.13028 13.9452 11.5362C14.2562 13.1455 14.5691 14.7548 14.8996 16.464C15.0923 16.1326 15.239 15.8834 15.3821 15.6315C18.0923 10.8381 20.8024 6.04346 23.5126 1.24767C23.6743 0.955152 23.859 0.830544 24.2037 0.830544C25.851 0.847336 27.4983 0.836731 29.1456 0.838498C29.614 0.838498 29.6546 0.891523 29.6007 1.35019C29.1082 5.5792 28.6162 9.80822 28.1249 14.0372C27.6741 17.9027 27.2208 21.7679 26.7648 25.6328C26.695 26.2276 26.6888 26.2276 26.1002 26.2276C24.5236 26.2276 22.9467 26.2276 21.3695 26.2276C20.8888 26.2276 20.8216 26.156 20.8826 25.6859C21.3451 22.1049 21.8093 18.524 22.2754 14.9431C22.3319 14.5056 22.3814 14.0673 22.4344 13.6289L22.3637 13.6015Z" fill="white"/>
<path d="M66.0004 17.9628C66.1931 16.8864 66.3884 15.8109 66.5784 14.7336C67.372 10.2248 68.1629 5.715 68.9512 1.20437C68.9998 0.929524 69.1138 0.832312 69.3931 0.834079C71.0413 0.845568 72.6886 0.834079 74.3359 0.840266C74.7778 0.840266 74.8449 0.9145 74.7645 1.3767C74.4517 3.17512 74.1317 4.97266 73.8154 6.76754L71.1456 21.9591C70.9167 23.2591 70.6851 24.5591 70.4651 25.8609C70.4191 26.1375 70.2883 26.2347 70.0117 26.2338C67.8713 26.2261 65.7309 26.2261 63.5904 26.2338C63.2758 26.2338 63.1883 26.0703 63.1079 25.8211C62.0403 22.5383 60.9704 19.2557 59.8981 15.9735C59.2495 13.9869 58.599 12.0011 57.8814 10.0153C57.7135 10.9759 57.543 11.9357 57.3777 12.8963C56.636 17.1872 55.8968 21.4784 55.1604 25.7698C55.1038 26.1012 54.9783 26.2426 54.6133 26.2382C52.9943 26.2188 51.3753 26.2311 49.7528 26.2285C49.2764 26.2285 49.2048 26.1401 49.2861 25.6797C50.5399 18.5838 51.7918 11.4882 53.042 4.39292C53.2188 3.36866 53.4097 2.34617 53.5723 1.31926C53.6271 0.970176 53.7437 0.825242 54.1344 0.829661C56.19 0.851754 58.2464 0.848219 60.302 0.829661C60.6476 0.829661 60.7872 0.936594 60.8862 1.26535C62.5252 6.72453 64.1728 12.1805 65.829 17.6332C65.8617 17.7401 65.8997 17.8453 65.935 17.9505L66.0004 17.9628Z" fill="white"/>
<path d="M133.053 17.6049L134.936 21.0091C135.779 22.5338 136.622 24.0583 137.464 25.5825C137.749 26.1003 137.677 26.2285 137.099 26.2294C135.255 26.2294 133.411 26.2232 131.566 26.2356C131.228 26.2356 131.03 26.1216 130.865 25.8246C129.558 23.48 128.234 21.147 126.927 18.8033C126.78 18.5381 126.624 18.4215 126.308 18.4286C125.311 18.4507 124.313 18.4365 123.273 18.4365C123.132 19.2451 122.993 20.0273 122.857 20.8156C122.568 22.4947 122.276 24.1641 121.994 25.8405C121.946 26.1286 121.818 26.2373 121.516 26.2347C119.836 26.2241 118.164 26.2347 116.489 26.2285C116.02 26.2285 115.944 26.1401 116.027 25.6726C116.489 23.0449 116.954 20.4176 117.421 17.7905C118.137 13.7253 118.851 9.65827 119.563 5.58951C119.82 4.12308 120.076 2.65666 120.33 1.19023C120.371 0.944547 120.473 0.836731 120.745 0.836731C124.153 0.844684 127.56 0.822591 130.967 0.853522C132.35 0.866778 133.713 1.0939 135.003 1.63475C137.281 2.59096 138.581 4.50692 138.332 6.9549C138.109 9.0063 137.755 11.0413 137.272 13.0474C136.774 15.1834 135.379 16.6416 133.337 17.4662C133.252 17.5015 133.168 17.5483 133.053 17.6049ZM124.225 13.1517C126.068 13.1517 127.881 13.203 129.69 13.1314C130.719 13.0907 131.411 12.4474 131.634 11.4275C131.877 10.3184 132.093 9.19961 132.237 8.0746C132.388 6.89038 131.953 6.31507 130.766 6.2479C129.069 6.15157 127.365 6.17809 125.664 6.16748C125.575 6.16748 125.427 6.308 125.41 6.40167C125.005 8.65257 124.616 10.9052 124.225 13.1517Z" fill="white"/>
<path d="M164.566 26.2294C162.638 26.2294 160.709 26.2294 158.78 26.2294C158.245 26.2294 158.179 26.1622 158.27 25.6435C158.952 21.7862 159.636 17.9292 160.323 14.0726C161.073 9.84003 161.821 5.60925 162.565 1.38023C162.636 0.972827 162.764 0.825242 163.204 0.828777C166.399 0.849103 169.595 0.821707 172.79 0.847336C174.535 0.861475 176.201 1.22558 177.651 2.26133C179.127 3.31122 179.828 4.78707 179.976 6.55986C180.092 7.94027 179.761 9.27119 179.528 10.611C178.984 13.7371 178.429 16.8596 177.862 19.9786C177.516 21.8875 176.781 23.5861 175.097 24.7182C173.907 25.5115 172.527 25.973 171.099 26.0553C168.925 26.1984 166.744 26.2232 164.565 26.2974L164.566 26.2294ZM167.703 6.23465C166.844 11.074 165.978 15.9558 165.112 20.8315C165.159 20.8521 165.208 20.8673 165.258 20.8765C166.595 20.8765 167.936 20.9243 169.27 20.8491C171.18 20.7422 171.832 20.1421 172.177 18.2668C172.683 15.4901 173.162 12.7072 173.635 9.92428C173.763 9.20694 173.846 8.48235 173.884 7.75469C173.909 7.1723 173.583 6.73219 173.039 6.50861C172.73 6.38135 172.395 6.2532 172.067 6.24348C170.636 6.22139 169.202 6.23465 167.703 6.23465Z" fill="white"/>
<path d="M107.581 0.388672C109.409 0.448767 111.181 0.682075 112.841 1.48717C115.706 2.87818 117.129 5.55946 116.6 8.6888C116.005 12.2055 115.383 15.7175 114.734 19.2248C114.347 21.3122 113.465 23.1504 111.735 24.4875C110.459 25.4738 108.985 26.0023 107.414 26.2736C105.224 26.6518 103.023 26.7693 100.827 26.3266C99.0861 25.9731 97.543 25.2387 96.3951 23.8344C95.1666 22.3321 94.7274 20.5946 95.0447 18.6981C95.6421 15.1248 96.2663 11.556 96.9173 7.99153C97.6614 3.9263 100.151 1.46684 104.233 0.768682C105.34 0.579561 106.465 0.511512 107.581 0.388672ZM104.214 21.3078C104.865 21.2512 105.316 21.2309 105.76 21.1699C107.517 20.9296 108.607 19.9733 108.9 18.3517C109.496 15.0653 110.074 11.776 110.635 8.48378C110.864 7.15109 110.301 6.31418 108.983 5.9872C107.899 5.7212 106.769 5.70971 105.68 5.95361C104.01 6.31507 102.998 7.3137 102.716 9.03788C102.415 10.8796 102.06 12.7125 101.738 14.5507C101.489 15.9744 101.234 17.3972 101.021 18.8262C100.858 19.9239 101.329 20.6874 102.379 20.9852C103.035 21.1708 103.727 21.2256 104.214 21.3078Z" fill="white"/>
<path d="M145.75 20.8845H155.272C155.891 20.8845 155.927 20.9234 155.827 21.5305C155.593 22.9445 155.351 24.3585 155.12 25.7725C155.068 26.1039 154.943 26.2417 154.576 26.2409C149.536 26.2285 144.496 26.2255 139.456 26.232C138.92 26.232 138.87 26.1622 138.962 25.6408C139.96 19.9566 140.958 14.2711 141.956 8.58452C142.383 6.15069 142.816 3.71774 143.232 1.28125C143.291 0.93571 143.431 0.829661 143.785 0.830544C148.825 0.842917 153.865 0.845863 158.905 0.839382C159.455 0.839382 159.486 0.884453 159.388 1.4253C159.13 2.86316 158.866 4.29924 158.633 5.74063C158.576 6.08883 158.424 6.16306 158.103 6.16129C155.019 6.15246 151.937 6.15599 148.853 6.15599H148.367C148.12 7.57529 147.878 8.96984 147.62 10.4457H156.37C156.981 10.4457 157.014 10.4784 156.911 11.0643C156.667 12.4474 156.394 13.8251 156.183 15.2135C156.115 15.6616 155.927 15.7437 155.523 15.7437C152.75 15.7296 149.977 15.7437 147.203 15.7261C146.779 15.7261 146.641 15.8383 146.574 16.2643C146.336 17.787 146.039 19.3008 145.75 20.8845Z" fill="white"/>
<path d="M39.6047 6.15688C39.3564 7.58147 39.1125 8.98486 38.8579 10.4466H47.6318C48.1982 10.4466 48.2504 10.5014 48.1558 11.0537C47.9057 12.4933 47.6388 13.9294 47.3967 15.3699C47.3392 15.7155 47.1316 15.7384 46.8567 15.7384C44.0402 15.7331 41.2237 15.7429 38.4081 15.7261C38.0219 15.7261 37.8849 15.8224 37.8213 16.2139C37.5809 17.6977 37.2911 19.1727 37.0259 20.6512C37.0205 20.7286 37.0205 20.8062 37.0259 20.8836H46.5103C47.1227 20.8836 47.1651 20.9278 47.0626 21.5358C46.8205 22.9763 46.5642 24.4142 46.3309 25.8564C46.2849 26.1383 46.1665 26.2329 45.889 26.232C40.7916 26.2279 35.6953 26.2279 30.6002 26.232C30.2025 26.232 30.1177 26.0553 30.1796 25.7062C30.8618 21.8342 31.5426 17.9611 32.2219 14.0867C32.9725 9.82589 33.7213 5.56536 34.4684 1.30512C34.5267 0.969292 34.6345 0.829661 34.9986 0.830544C40.0536 0.842328 45.1087 0.844979 50.1637 0.838498C50.6701 0.838498 50.7143 0.887104 50.6303 1.36875C50.3758 2.82074 50.1054 4.27096 49.8694 5.72649C49.8146 6.06497 49.6856 6.16836 49.3524 6.16836C46.269 6.15776 43.1856 6.16218 40.1014 6.16218L39.6047 6.15688Z" fill="white"/>
<path d="M83.0001 6.15688H76.9155C76.3225 6.15688 76.289 6.12153 76.3932 5.52235C76.6433 4.08361 76.9041 2.64576 77.1515 1.20614C77.1975 0.941013 77.3123 0.834079 77.5934 0.834079C83.8043 0.841149 90.0147 0.841149 96.2245 0.834079C96.6239 0.834079 96.7141 0.989618 96.6505 1.34488C96.3853 2.79688 96.1202 4.24799 95.8842 5.70351C95.8224 6.07822 95.6562 6.16836 95.2965 6.16483C93.3815 6.14804 91.4664 6.15688 89.5522 6.15688H89.0538C88.8859 7.0963 88.7188 8.01893 88.5562 8.94244C87.752 13.5208 86.949 18.1001 86.1471 22.6803C85.9651 23.7178 85.7671 24.7535 85.6063 25.7937C85.5533 26.1313 85.4154 26.2356 85.0831 26.2356C83.4217 26.2232 81.7602 26.2303 80.0988 26.2294C79.5756 26.2294 79.512 26.1578 79.6039 25.6302C79.945 23.6647 80.2897 21.7002 80.6379 19.7365C81.4138 15.3372 82.1891 10.9382 82.9639 6.53954C82.9816 6.42907 82.986 6.31595 83.0001 6.15688Z" fill="white"/>
</svg>
