<svg width="212" height="27" viewBox="0 0 212 27" fill="none" xmlns="http://www.w3.org/2000/svg">
<path d="M22.3637 13.2129C22.2303 13.4382 22.0986 13.6636 21.9634 13.8881C20.3137 16.6501 18.6641 19.4123 17.0144 22.1749C16.8421 22.4648 16.6512 22.5876 16.3074 22.5841C14.6283 22.5691 12.9563 22.5664 11.2807 22.5841C10.9016 22.5885 10.7805 22.4533 10.7107 22.0963C10.1265 19.1393 9.52203 16.1858 8.8548 13.2208C8.72312 13.759 8.58967 14.2955 8.45976 14.8345C7.61756 18.3572 6.77004 21.8789 5.94374 25.405C5.86067 25.7585 5.70248 25.8469 5.36842 25.8469C3.73526 25.8336 2.09857 25.8425 0.468942 25.8398C-0.0153501 25.8398 -0.0613049 25.77 0.0509307 25.2875C1.97691 17.1741 3.90082 9.05957 5.82267 0.94384C5.91104 0.585039 6.03212 0.435686 6.4298 0.440989C8.07946 0.464555 9.72676 0.464555 11.3717 0.440989C11.757 0.435686 11.9108 0.550573 11.9824 0.928816C12.6275 4.33654 13.2885 7.74161 13.9452 11.1476C14.2562 12.7569 14.5691 14.3662 14.8996 16.0753C15.0923 15.7439 15.239 15.4947 15.3821 15.2428C18.0923 10.4494 20.8024 5.65479 23.5126 0.859C23.6743 0.566481 23.859 0.441873 24.2037 0.441873C25.851 0.458664 27.4983 0.448059 29.1456 0.449826C29.614 0.449826 29.6546 0.502851 29.6007 0.961515C29.1082 5.19053 28.6162 9.41954 28.1249 13.6486C27.6741 17.5141 27.2208 21.3793 26.7648 25.2442C26.695 25.8389 26.6888 25.8389 26.1002 25.8389C24.5236 25.8389 22.9467 25.8389 21.3695 25.8389C20.8888 25.8389 20.8216 25.7674 20.8826 25.2972C21.3451 21.7163 21.8093 18.1353 22.2754 14.5544C22.3319 14.1169 22.3814 13.6786 22.4344 13.2403L22.3637 13.2129Z" fill="white"/>
<path d="M66.0004 17.5742C66.1931 16.4978 66.3884 15.4222 66.5784 14.3449C67.372 9.83608 68.1629 5.32633 68.9512 0.815697C68.9998 0.540852 69.1138 0.44364 69.3931 0.445407C71.0413 0.456896 72.6886 0.445408 74.3359 0.451594C74.7778 0.451594 74.8449 0.525828 74.7645 0.988027C74.4517 2.78645 74.1317 4.58399 73.8154 6.37887L71.1456 21.5704C70.9167 22.8704 70.6851 24.1704 70.4651 25.4722C70.4191 25.7488 70.2883 25.846 70.0117 25.8451C67.8713 25.8375 65.7309 25.8375 63.5904 25.8451C63.2758 25.8451 63.1883 25.6816 63.1079 25.4324C62.0403 22.1496 60.9704 18.8671 59.8981 15.5848C59.2495 13.5982 58.599 11.6124 57.8814 9.62663C57.7135 10.5873 57.543 11.547 57.3777 12.5076C56.636 16.7985 55.8968 21.0897 55.1604 25.3812C55.1038 25.7126 54.9783 25.854 54.6133 25.8495C52.9943 25.8301 51.3753 25.8425 49.7528 25.8398C49.2764 25.8398 49.2048 25.7514 49.2861 25.291C50.5399 18.1951 51.7918 11.0995 53.042 4.00425C53.2188 2.97999 53.4097 1.9575 53.5723 0.930583C53.6271 0.581504 53.7437 0.43657 54.1344 0.440989C56.19 0.463082 58.2464 0.459547 60.302 0.440989C60.6476 0.440989 60.7872 0.547922 60.8862 0.876675C62.5252 6.33586 64.1728 11.7918 65.829 17.2445C65.8617 17.3514 65.8997 17.4566 65.935 17.5618L66.0004 17.5742Z" fill="white"/>
<path d="M133.053 17.2162L134.936 20.6204C135.779 22.1452 136.622 23.6696 137.464 25.1938C137.749 25.7117 137.677 25.8398 137.099 25.8407C135.255 25.8407 133.411 25.8345 131.566 25.8469C131.228 25.8469 131.03 25.7329 130.865 25.4359C129.558 23.0914 128.234 20.7583 126.927 18.4146C126.78 18.1495 126.624 18.0328 126.308 18.0399C125.311 18.062 124.313 18.0478 123.273 18.0478C123.132 18.8565 122.993 19.6386 122.857 20.4269C122.568 22.106 122.276 23.7754 121.994 25.4519C121.946 25.74 121.818 25.8487 121.516 25.846C119.836 25.8354 118.164 25.846 116.489 25.8398C116.02 25.8398 115.944 25.7514 116.027 25.2839C116.489 22.6563 116.954 20.0289 117.421 17.4018C118.137 13.3366 118.851 9.2696 119.563 5.20084C119.82 3.73441 120.076 2.26798 120.33 0.801557C120.371 0.555876 120.473 0.448059 120.745 0.448059C124.153 0.456012 127.56 0.433919 130.967 0.46485C132.35 0.478106 133.713 0.705229 135.003 1.24608C137.281 2.20229 138.581 4.11825 138.332 6.56623C138.109 8.61763 137.755 10.6526 137.272 12.6588C136.774 14.7948 135.379 16.253 133.337 17.0775C133.252 17.1128 133.168 17.1597 133.053 17.2162ZM124.225 12.763C126.068 12.763 127.881 12.8143 129.69 12.7427C130.719 12.7021 131.411 12.0587 131.634 11.0389C131.877 9.92976 132.093 8.81094 132.237 7.68593C132.388 6.50171 131.953 5.92639 130.766 5.85923C129.069 5.7629 127.365 5.78941 125.664 5.77881C125.575 5.77881 125.427 5.91932 125.41 6.013C125.005 8.2639 124.616 10.5166 124.225 12.763Z" fill="white"/>
<path d="M164.566 25.8407C162.638 25.8407 160.709 25.8407 158.78 25.8407C158.245 25.8407 158.179 25.7735 158.27 25.2548C158.952 21.3975 159.636 17.5406 160.323 13.6839C161.073 9.45136 161.821 5.22058 162.565 0.991562C162.636 0.584155 162.764 0.43657 163.204 0.440105C166.399 0.460431 169.595 0.433035 172.79 0.458664C174.535 0.472804 176.201 0.836907 177.651 1.87266C179.127 2.92254 179.828 4.3984 179.976 6.17119C180.092 7.5516 179.761 8.88252 179.528 10.2223C178.984 13.3484 178.429 16.4709 177.862 19.59C177.516 21.4989 176.781 23.1974 175.097 24.3295C173.907 25.1228 172.527 25.5844 171.099 25.6666C168.925 25.8098 166.744 25.8345 164.565 25.9088L164.566 25.8407ZM167.703 5.84597C166.844 10.6854 165.978 15.5672 165.112 20.4428C165.159 20.4635 165.208 20.4786 165.258 20.4879C166.595 20.4879 167.936 20.5356 169.27 20.4605C171.18 20.3535 171.832 19.7535 172.177 17.8782C172.683 15.1014 173.162 12.3185 173.635 9.53561C173.763 8.81827 173.846 8.09368 173.884 7.36601C173.909 6.78363 173.583 6.34352 173.039 6.11993C172.73 5.99267 172.395 5.86453 172.067 5.85481C170.636 5.83272 169.202 5.84597 167.703 5.84597Z" fill="white"/>
<path d="M107.581 0C109.409 0.0600947 111.181 0.293403 112.841 1.0985C115.706 2.48951 117.129 5.17079 116.6 8.30013C116.005 11.8168 115.383 15.3289 114.734 18.8361C114.347 20.9235 113.465 22.7617 111.735 24.0988C110.459 25.0851 108.985 25.6136 107.414 25.8849C105.224 26.2631 103.023 26.3807 100.827 25.9379C99.0861 25.5844 97.543 24.85 96.3951 23.4458C95.1666 21.9434 94.7274 20.2059 95.0447 18.3094C95.6421 14.7362 96.2663 11.1673 96.9173 7.60286C97.6614 3.53763 100.151 1.07817 104.233 0.38001C105.34 0.190889 106.465 0.122841 107.581 0ZM104.214 20.9191C104.865 20.8626 105.316 20.8422 105.76 20.7813C107.517 20.5409 108.607 19.5847 108.9 17.963C109.496 14.6766 110.074 11.3873 110.635 8.0951C110.864 6.76242 110.301 5.92551 108.983 5.59852C107.899 5.33253 106.769 5.32104 105.68 5.56494C104.01 5.92639 102.998 6.92503 102.716 8.64921C102.415 10.4909 102.06 12.3238 101.738 14.162C101.489 15.5857 101.234 17.0086 101.021 18.4376C100.858 19.5352 101.329 20.2987 102.379 20.5966C103.035 20.7821 103.727 20.8369 104.214 20.9191Z" fill="white"/>
<path d="M145.75 20.4958H155.272C155.891 20.4958 155.927 20.5347 155.827 21.1418C155.593 22.5558 155.351 23.9698 155.12 25.3838C155.068 25.7152 154.943 25.8531 154.576 25.8522C149.536 25.8398 144.496 25.8369 139.456 25.8434C138.92 25.8434 138.87 25.7735 138.962 25.2521C139.96 19.5679 140.958 13.8825 141.956 8.19585C142.383 5.76202 142.816 3.32907 143.232 0.892583C143.291 0.547038 143.431 0.440989 143.785 0.441873C148.825 0.454245 153.865 0.457191 158.905 0.45071C159.455 0.45071 159.486 0.495781 159.388 1.03663C159.13 2.47449 158.866 3.91057 158.633 5.35196C158.576 5.70016 158.424 5.77439 158.103 5.77262C155.019 5.76378 151.937 5.76732 148.853 5.76732H148.367C148.12 7.18661 147.878 8.58116 147.62 10.057H156.37C156.981 10.057 157.014 10.0897 156.911 10.6756C156.667 12.0587 156.394 13.4365 156.183 14.8248C156.115 15.2729 155.927 15.3551 155.523 15.3551C152.75 15.3409 149.977 15.3551 147.203 15.3374C146.779 15.3374 146.641 15.4496 146.574 15.8756C146.336 17.3983 146.039 18.9121 145.75 20.4958Z" fill="white"/>
<path d="M39.6047 5.7682C39.3564 7.1928 39.1125 8.59619 38.8579 10.0579H47.6318C48.1982 10.0579 48.2504 10.1127 48.1558 10.665C47.9057 12.1047 47.6388 13.5407 47.3967 14.9812C47.3392 15.3268 47.1316 15.3498 46.8567 15.3498C44.0402 15.3445 41.2237 15.3542 38.4081 15.3374C38.0219 15.3374 37.8849 15.4337 37.8213 15.8252C37.5809 17.309 37.2911 18.784 37.0259 20.2625C37.0205 20.3399 37.0205 20.4176 37.0259 20.4949H46.5103C47.1227 20.4949 47.1651 20.5391 47.0626 21.1471C46.8205 22.5876 46.5642 24.0255 46.3309 25.4678C46.2849 25.7497 46.1665 25.8442 45.889 25.8434C40.7916 25.8392 35.6953 25.8392 30.6002 25.8434C30.2025 25.8434 30.1177 25.6666 30.1796 25.3175C30.8618 21.4455 31.5426 17.5724 32.2219 13.698C32.9725 9.43722 33.7213 5.17668 34.4684 0.916444C34.5267 0.58062 34.6345 0.440989 34.9986 0.441873C40.0536 0.453656 45.1087 0.456307 50.1637 0.449826C50.6701 0.449826 50.7143 0.498432 50.6303 0.980073C50.3758 2.43207 50.1054 3.88229 49.8694 5.33782C49.8146 5.67629 49.6856 5.77969 49.3524 5.77969C46.269 5.76909 43.1856 5.77351 40.1014 5.77351L39.6047 5.7682Z" fill="white"/>
<path d="M83.0001 5.7682H76.9155C76.3225 5.7682 76.289 5.73285 76.3932 5.13368C76.6433 3.69494 76.9041 2.25708 77.1515 0.817464C77.1975 0.552341 77.3123 0.445407 77.5934 0.445407C83.8043 0.452477 90.0147 0.452477 96.2245 0.445407C96.6239 0.445407 96.7141 0.600947 96.6505 0.956212C96.3853 2.40821 96.1202 3.85931 95.8842 5.31484C95.8224 5.68955 95.6562 5.77969 95.2965 5.77616C93.3815 5.75937 91.4664 5.7682 89.5522 5.7682H89.0538C88.8859 6.70762 88.7188 7.63025 88.5562 8.55377C87.752 13.1322 86.949 17.7114 86.1471 22.2916C85.9651 23.3291 85.7671 24.3649 85.6063 25.405C85.5533 25.7426 85.4154 25.8469 85.0831 25.8469C83.4217 25.8345 81.7602 25.8416 80.0988 25.8407C79.5756 25.8407 79.512 25.7691 79.6039 25.2415C79.945 23.2761 80.2897 21.3115 80.6379 19.3478C81.4138 14.9485 82.1891 10.5496 82.9639 6.15087C82.9816 6.0404 82.986 5.92728 83.0001 5.7682Z" fill="white"/>
<path d="M197.375 25C196.823 25 196.375 24.5523 196.375 24V16.5702C196.375 16.0179 195.927 15.5702 195.375 15.5702H188C187.448 15.5702 187 15.1225 187 14.5702V10.4298C187 9.87754 187.448 9.42982 188 9.42982H195.375C195.927 9.42982 196.375 8.98211 196.375 8.42982V1C196.375 0.447717 196.823 0 197.375 0H201.625C202.177 0 202.625 0.447715 202.625 1V8.42982C202.625 8.98211 203.073 9.42982 203.625 9.42982H211C211.552 9.42982 212 9.87754 212 10.4298V14.5702C212 15.1225 211.552 15.5702 211 15.5702H203.625C203.073 15.5702 202.625 16.0179 202.625 16.5702V24C202.625 24.5523 202.177 25 201.625 25H197.375Z" fill="url(#paint0_linear_1_2881)"/>
<defs>
<linearGradient id="paint0_linear_1_2881" x1="190.833" y1="-5.95115e-07" x2="212" y2="21.1673" gradientUnits="userSpaceOnUse">
<stop stop-color="#F5A719"/>
<stop offset="1" stop-color="#F13011"/>
</linearGradient>
</defs>
</svg>
