<svg width="20" height="21" viewBox="0 0 20 21" fill="none" xmlns="http://www.w3.org/2000/svg">
<path d="M18.2422 3.46875H1.75781C0.790547 3.46875 0 4.25582 0 5.22656V15.7734C0 16.7445 0.791055 17.5312 1.75781 17.5312H18.2422C19.2095 17.5312 20 16.7442 20 15.7734V5.22656C20 4.25559 19.2091 3.46875 18.2422 3.46875ZM17.9723 4.64062C17.4039 5.21082 10.7283 11.9082 10.4541 12.1834C10.225 12.4131 9.77512 12.4133 9.54594 12.1834L2.02773 4.64062H17.9723ZM1.17188 15.558V5.44199L6.21348 10.5L1.17188 15.558ZM2.02773 16.3594L7.04078 11.33L8.71598 13.0107C9.40246 13.6994 10.5978 13.6991 11.2841 13.0107L12.9593 11.33L17.9723 16.3594H2.02773ZM18.8281 15.558L13.7865 10.5L18.8281 5.44199V15.558Z" fill="#FF781E"/>
</svg>
