<svg width="134" height="95" viewBox="0 0 134 95" fill="none" xmlns="http://www.w3.org/2000/svg">
<g id="Vector">
<path d="M22.7804 84.7542H24.6564V94.832H22.7804V84.7542Z" fill="white"/>
<path d="M34.3716 92.0438L30.1505 84.7542H27.906V94.832H29.6145V87.1057L34.1371 94.832H36.0801V84.7542H34.3716V92.0438Z" fill="white"/>
<path d="M46.3983 91.8759C46.3983 89.8603 45.1588 89.1885 42.8137 88.8525C41.0717 88.5838 40.7367 88.1807 40.7367 87.3745C40.7367 86.5682 41.3397 86.0308 42.4787 86.0308C43.6177 86.0308 44.2207 86.4675 44.4217 87.5424H46.1303C45.9293 85.5941 44.6227 84.6199 42.4787 84.6199C40.3347 84.6199 38.9611 85.8628 38.9611 87.5088C38.9611 89.39 40.1002 90.1291 42.5122 90.465C44.1537 90.7337 44.6228 91.0696 44.6228 92.0102C44.6228 92.9508 43.8522 93.5555 42.7132 93.5555C41.0047 93.5555 40.6027 92.7157 40.4687 91.7079H38.6596C38.7936 93.6227 39.9662 95 42.6797 95C44.9243 95 46.3983 93.6227 46.3983 91.8759Z" fill="white"/>
<path d="M57.085 90.9017V84.7542H55.2089V90.7337C55.2089 92.8165 54.4719 93.4883 53.0314 93.4883C51.5909 93.4883 50.9544 92.7157 50.9544 90.8681V84.7542H49.0783V91.0025C49.0783 93.5891 50.5188 94.9664 53.0314 94.9664C55.6779 95 57.085 93.5219 57.085 90.9017Z" fill="white"/>
<path d="M65.1251 90.4986C66.3646 90.1627 67.3696 89.3564 67.3696 87.7776V87.7104C67.3696 85.6612 65.8286 84.7542 63.6176 84.7542H60.234V94.832H62.11V90.7673H63.3161L65.9291 94.832H67.9391L65.1251 90.4986ZM62.11 89.4236V86.2323H63.6176C64.8236 86.2323 65.5271 86.6354 65.5271 87.7776V87.8448C65.5271 88.9197 64.8571 89.4572 63.6176 89.4572L62.11 89.4236Z" fill="white"/>
<path d="M73.2992 84.7542L69.9492 94.832H71.6912L72.4617 92.3462H76.3143L77.1183 94.832H79.0613L75.7448 84.7542H73.2992ZM72.9307 90.9689L74.4382 86.2659L75.9123 90.9689H72.9307Z" fill="white"/>
<path d="M88.006 92.0438L83.7514 84.7542H81.5404V94.832H83.2154V87.1057L87.7715 94.832H89.7145V84.7542H88.006V92.0438Z" fill="white"/>
<path d="M97.4196 93.4547C95.5771 93.4547 94.4716 92.111 94.4716 89.8267V89.7259C94.4716 87.4752 95.6441 86.0979 97.3861 86.0979C98.8267 86.0979 99.5637 86.8034 99.7982 88.1135H101.708C101.473 85.7284 99.6977 84.5863 97.3861 84.5863C94.5721 84.5863 92.495 86.7026 92.495 89.7259V89.8267C92.495 92.9172 94.2371 94.9328 97.4196 94.9328C99.7982 94.9328 101.54 93.6899 101.842 91.2712H100.033C99.7982 92.7493 98.7932 93.4547 97.4196 93.4547Z" fill="white"/>
<path d="M106.565 93.354V90.4314H110.083V89.0205H106.565V86.2323H110.954V84.7542H104.689V94.832H111.222V93.354H106.565Z" fill="white"/>
<path d="M86.2974 6.48338C88.7095 6.48338 90.887 5.74434 90.887 4.77015C90.887 4.46782 90.4515 4.60219 90.2505 4.66938C89.48 4.87093 87.604 5.40841 85.6274 4.97171C85.4264 5.37482 85.0244 5.84512 83.8519 6.11386C84.6447 6.35627 85.4686 6.48077 86.2974 6.48338Z" fill="white"/>
<path d="M96.6491 22.0032C95.9456 21.3313 95.2421 20.6931 94.5051 20.0884H82.8469C83.5839 20.6931 84.3209 21.3313 84.9909 22.0032H96.6491Z" fill="white"/>
<path d="M51.4234 9.20438C50.6864 9.53794 49.8869 9.70974 49.0783 9.70827C48.1685 9.68535 47.2615 9.59553 46.3648 9.43953C46.1973 9.43953 46.1638 9.50672 46.1638 9.6075C46.1638 10.0778 47.5038 11.1192 49.9828 11.1192C51.2559 11.1192 52.3614 10.8504 53.1989 10.2458C52.5624 10.1114 51.7584 9.70827 51.4234 9.20438Z" fill="white"/>
<path d="M91.5235 6.55057C94.9071 6.55057 97.7211 4.90452 97.7211 3.93034C97.724 3.8639 97.7012 3.79892 97.6575 3.74888C97.6139 3.69884 97.5527 3.66758 97.4866 3.6616H97.3861C96.6156 3.82956 95.2421 4.90453 91.7245 4.90453C91.624 5.64357 91.155 6.08026 89.9825 6.44978C90.4936 6.51571 91.0083 6.54938 91.5235 6.55057Z" fill="white"/>
<path d="M92.6291 18.7111C91.6463 18.0134 90.6165 17.3848 89.547 16.8299H77.4533C78.6485 17.3701 79.8019 17.9989 80.9039 18.7111H92.6291Z" fill="white"/>
<path d="M57.3195 3.59441C58.0592 3.59696 58.7685 3.89049 59.2947 4.41187C59.8209 4.93326 60.1221 5.64088 60.1335 6.3826V6.4162C60.1335 7.49116 59.5305 8.33098 58.626 8.93565C58.7265 9.07001 58.8605 9.17078 58.961 9.30516C59.1285 9.50671 59.296 9.67468 59.4635 9.84264C59.7181 10.1157 59.9986 10.3632 60.301 10.5817L60.502 10.7496C60.8024 10.9595 61.1157 11.1503 61.44 11.3207C61.574 11.3879 61.7415 11.4551 61.8755 11.5223C62.0357 11.5982 62.2044 11.6546 62.378 11.6902C62.729 11.7814 63.0881 11.8377 63.4501 11.8582C63.5506 11.8582 63.6176 11.8918 63.7181 11.8918V13.6386C63.7181 15.0159 65.0916 15.7549 66.6996 15.7549C68.3076 15.7549 69.6812 15.0159 69.6812 13.6386V11.8582C69.7718 11.8637 69.8627 11.8523 69.9492 11.8246C70.3177 11.791 70.6527 11.7238 71.0212 11.6566C71.1934 11.6159 71.3616 11.5597 71.5237 11.4887C71.6912 11.4215 71.8252 11.3543 71.9592 11.2871C72.2904 11.1293 72.6047 10.9379 72.8972 10.7161L73.0982 10.5481C73.3927 10.3198 73.6725 10.0729 73.9357 9.80904C74.1032 9.64108 74.2707 9.47313 74.4382 9.27157C74.5387 9.1372 74.6728 9.03642 74.7733 8.90205C73.9022 8.29738 73.2657 7.45757 73.2657 6.3826C73.2577 6.01549 73.3228 5.65046 73.4572 5.30887C73.5915 4.96729 73.7925 4.65601 74.0483 4.39325C74.3041 4.13049 74.6096 3.92153 74.9469 3.77859C75.2842 3.63566 75.6466 3.56162 76.0128 3.56082H76.0463C76.7951 3.60177 77.5162 3.85836 78.1233 4.29985C78.3578 3.96393 78.5588 3.628 78.7933 3.29207C77.9972 2.72918 77.0535 2.41373 76.0798 2.38507C75.0232 2.36978 74.0036 2.77469 73.2439 3.51124C72.4843 4.24779 72.0465 5.25602 72.0262 6.31541V6.3826C72.0635 7.39188 72.455 8.35553 73.1317 9.10361C72.3947 9.84265 71.2892 10.8504 69.6142 10.8168V2.11633C69.6142 0.739034 68.2406 0 66.6326 0C65.0246 0 63.6511 0.739034 63.6511 2.11633V10.8168C61.976 10.8504 60.8705 9.84265 60.1335 9.10361C60.8236 8.36409 61.2173 7.39518 61.239 6.3826C61.2408 5.85714 61.1389 5.33652 60.9392 4.85072C60.7395 4.36491 60.4459 3.92352 60.0753 3.55196C59.7048 3.18041 59.2646 2.88602 58.7801 2.68576C58.2957 2.48549 57.7765 2.3833 57.2525 2.38507H57.1855C56.2118 2.41373 55.268 2.72918 54.4719 3.29207C54.7064 3.628 54.9074 3.96393 55.1419 4.29985C55.804 3.8999 56.5492 3.6585 57.3195 3.59441ZM66.6996 0.94059C67.3269 0.895128 67.9484 1.08688 68.4416 1.47807L66.6996 3.15771L64.9576 1.47807C65.4509 1.08688 66.0724 0.895128 66.6996 0.94059ZM64.6226 2.21711L66.6996 4.19908L68.7766 2.18352V3.628L66.6996 5.64356L64.6226 3.628V2.21711ZM64.6226 4.70297L66.6996 6.71853L68.7766 4.70297V6.14745L66.6996 8.16301L64.6226 6.14745V4.70297ZM64.6226 7.18882L66.6996 9.20438L68.7766 7.18882V8.6333L66.6996 10.6489L64.6226 8.6333V7.18882ZM64.6226 9.67468L66.6996 11.6902L68.7766 9.67468V11.1192L66.6996 13.1347L64.6226 11.1192V9.67468ZM64.6226 12.1605L66.6996 14.1761L68.7766 12.1605V13.5714C68.7766 14.3776 67.9391 14.8479 66.6996 14.8479C65.4601 14.8479 64.6226 14.3441 64.6226 13.5714V12.1605Z" fill="white"/>
<path d="M78.7933 4.87093C79.733 5.39778 80.7997 5.65357 81.8754 5.60996C83.1819 5.60996 84.8234 5.24045 84.8234 4.66937C84.8234 4.40063 84.3544 4.46782 83.4499 4.50141C82.1126 4.5957 80.7738 4.34109 79.5638 3.76237C79.2836 4.11501 79.0263 4.48529 78.7933 4.87093Z" fill="white"/>
<path d="M57.3865 8.70049C57.1185 8.36457 56.8505 7.99505 56.4819 7.52475C55.4769 8.16301 54.5724 8.53253 52.5959 8.46534C52.2274 8.46534 52.0599 8.46534 52.0599 8.6669C52.0599 8.96923 53.1654 9.64108 54.5389 9.64108C55.56 9.61691 56.551 9.28958 57.3865 8.70049Z" fill="white"/>
<path d="M74.4047 6.44978C74.4159 6.78789 74.5144 7.11731 74.6906 7.40583C74.8667 7.69434 75.1145 7.93209 75.4098 8.09582C75.6108 7.79349 75.8788 7.49115 76.1468 7.12163C75.6108 6.8193 75.3763 6.349 75.7113 5.97948C76.0463 5.60996 76.4483 5.74433 76.9173 6.11385C77.1183 5.81152 77.3528 5.50919 77.5873 5.17326C77.2118 4.85564 76.7385 4.67766 76.2473 4.66937C76.0182 4.65902 75.7893 4.69441 75.5739 4.77349C75.3585 4.85256 75.1609 4.97374 74.9926 5.13C74.8243 5.28626 74.6887 5.47448 74.5935 5.68374C74.4983 5.893 74.4456 6.11913 74.4382 6.349C74.4256 6.36227 74.416 6.37819 74.4102 6.39562C74.4044 6.41304 74.4026 6.43154 74.4047 6.44978Z" fill="white"/>
<path d="M90.686 13.0339C90.686 12.866 90.5185 12.7316 90.15 12.7988C88.8356 13.0067 87.4906 12.8914 86.2304 12.4629C85.8619 13.1347 85.2254 13.5042 84.3879 13.7394C85.3 14.0747 86.264 14.2453 87.2355 14.2433C89.3125 14.2433 90.686 13.5042 90.686 13.0339Z" fill="white"/>
<path d="M80.8034 8.43176C78.8268 8.53253 77.9223 8.12942 76.9173 7.49116C76.6356 7.89802 76.3337 8.29043 76.0128 8.6669C76.8458 9.26081 77.8383 9.58865 78.8603 9.6075C80.2338 9.6075 81.3394 8.93564 81.3394 8.6333C81.3394 8.43175 81.1719 8.43176 80.8034 8.43176Z" fill="white"/>
<path d="M81.9089 13.3363C84.0529 13.3363 85.1919 12.4965 85.1919 12.1269C85.1919 11.959 85.0914 11.9254 84.9239 11.9254C84.6559 11.9254 83.7179 12.0262 83.0814 12.0262C82.0355 12.0283 81.0033 11.7868 80.0663 11.3207C79.4968 11.959 79.0278 12.0933 78.2238 12.2277C79.3221 12.9411 80.6004 13.3256 81.9089 13.3363Z" fill="white"/>
<path d="M83.3829 11.1192C85.8619 11.1192 87.202 10.0778 87.202 9.6075C87.202 9.50672 87.135 9.43953 87.001 9.43953C86.1042 9.59553 85.1973 9.68535 84.2874 9.70827C83.4789 9.70974 82.6793 9.53794 81.9424 9.20438C81.6074 9.70827 80.8034 10.0778 80.1668 10.2458C81.0044 10.884 82.1434 11.1192 83.3829 11.1192Z" fill="white"/>
<path d="M72.3947 12.0598C72.0185 12.251 71.6261 12.4083 71.2222 12.5301C71.7582 13.605 72.5622 14.3441 73.7012 14.4784C74.3377 14.5456 74.9073 14.2769 74.9073 14.0081C74.9073 13.8402 74.4047 13.773 74.1032 13.6386C73.3734 13.3191 72.7718 12.7631 72.3947 12.0598Z" fill="white"/>
<path d="M87.872 25.3288H99.6307C99.1198 24.6602 98.5717 24.0209 97.9891 23.4141H86.3309C86.867 24.0187 87.3695 24.657 87.872 25.3288Z" fill="white"/>
<path d="M77.0848 12.4965C77.0848 12.3285 76.7498 12.3285 76.4818 12.2949C76.0102 12.2455 75.5534 12.101 75.1389 11.8701C74.7244 11.6392 74.3607 11.3266 74.0697 10.9512C73.7688 11.2264 73.4436 11.4738 73.0982 11.6902C73.5779 12.4512 74.3354 12.9937 75.2088 13.2019C76.3143 13.4035 77.0848 12.7988 77.0848 12.4965Z" fill="white"/>
<path d="M93.5671 10.2458C93.5699 10.1793 93.5471 10.1143 93.5035 10.0643C93.4598 10.0142 93.3986 9.98299 93.3326 9.97701H93.2991C92.6626 9.97701 92.093 10.4473 90.1165 10.4473C89.4241 10.4202 88.7377 10.3074 88.073 10.1114C87.805 10.8504 87.001 11.3207 86.1969 11.5559C87.134 11.8237 88.1036 11.9594 89.078 11.959C91.758 11.959 93.5671 10.884 93.5671 10.2458Z" fill="white"/>
<path d="M82.4784 6.34901C80.7029 6.44979 79.6308 6.24823 78.2908 5.54279C78.0228 5.9459 77.7213 6.34901 77.4533 6.71853C78.3514 7.32984 79.4166 7.64673 80.5018 7.62552C81.8754 7.62552 83.1819 7.05445 83.1819 6.61774C83.2489 6.41619 82.9474 6.31541 82.4784 6.34901Z" fill="white"/>
<path d="M45.3263 10.1114C44.6609 10.3048 43.9748 10.4175 43.2827 10.4473C41.2727 10.4473 40.7032 9.97701 40.1002 9.97701C40.0339 9.97415 39.9691 9.99699 39.9192 10.0408C39.8693 10.0846 39.8381 10.1459 39.8322 10.2122V10.2458C39.8322 10.884 41.6412 11.959 44.3212 11.959C45.2956 11.9594 46.2653 11.8237 47.2023 11.5559C46.3983 11.3207 45.5943 10.8504 45.3263 10.1114Z" fill="white"/>
<path d="M77.3193 11.5223C78.5923 11.5223 79.4968 10.9512 79.4968 10.6489C79.4968 10.4473 79.2958 10.4473 78.9943 10.4809C77.7331 10.5868 76.4751 10.2417 75.4433 9.50671L75.3428 9.64108C75.1083 9.90982 74.8737 10.1786 74.6392 10.4137C75.3673 11.0995 76.3208 11.4939 77.3193 11.5223Z" fill="white"/>
<path d="M82.4784 14.2769C82.4784 14.0753 81.9089 14.1761 81.0714 14.1089C79.8934 14.0364 78.7579 13.6414 77.7883 12.9668C77.6236 13.2315 77.3974 13.4523 77.129 13.6103C76.8606 13.7682 76.5581 13.8586 76.2473 13.8738C77.4107 14.6198 78.7531 15.0376 80.1333 15.0831C81.6074 15.1167 82.4784 14.6128 82.4784 14.2769Z" fill="white"/>
<path d="M88.743 7.02086C87.8066 7.22853 86.8537 7.3522 85.8954 7.39039C85.2389 7.38586 84.5857 7.29551 83.9524 7.12164C83.6844 7.59194 83.0144 8.02865 81.9759 8.2302C82.8242 8.63201 83.7513 8.83859 84.6894 8.83487C86.9675 8.83487 89.1115 8.09583 89.1115 7.2896C89.1115 7.12164 89.0445 6.98727 88.743 7.02086Z" fill="white"/>
<path d="M96.0461 7.02086C96.0461 6.8529 95.9791 6.71853 95.6776 6.78571C93.9236 7.52815 92.0057 7.79462 90.1165 7.55835C90.016 8.2302 89.145 8.90205 87.9725 9.1372C88.7921 9.27102 89.6211 9.33842 90.4515 9.33875C93.5336 9.33875 96.0461 8.02864 96.0461 7.02086Z" fill="white"/>
<path d="M45.2928 56.57H33.5341C33.8691 57.2419 34.2041 57.9137 34.6061 58.552H46.5323C46.0968 57.9137 45.6613 57.2419 45.2928 56.57Z" fill="white"/>
<path d="M51.4904 64.2291H39.1287C39.8481 64.9346 40.6088 65.5964 41.4067 66.2111H54.0029C53.1227 65.6068 52.2833 64.9447 51.4904 64.2291Z" fill="white"/>
<path d="M57.353 73.3327C63.5402 74.5085 69.8926 74.5085 76.0798 73.3327C77.9562 72.9631 79.8036 72.4579 81.6074 71.8211H51.8254C53.6292 72.4579 55.4765 72.9631 57.353 73.3327Z" fill="white"/>
<path d="M56.9845 68.0251H43.9527C45.0877 68.7507 46.262 69.4123 47.4703 70.0071H62.311C60.4505 69.6041 58.6568 68.9367 56.9845 68.0251Z" fill="white"/>
<path d="M47.9058 60.3996H35.8121C36.3146 61.0714 36.8171 61.7433 37.3866 62.3815H49.6143C49.0095 61.7523 48.4391 61.0907 47.9058 60.3996Z" fill="white"/>
<path d="M46.1303 14.2433C47.1017 14.2453 48.0658 14.0747 48.9778 13.7394C48.1403 13.5042 47.5038 13.1683 47.1353 12.4629C45.8755 12.8929 44.53 13.0082 43.2157 12.7988C42.8472 12.7316 42.6797 12.866 42.6797 13.0339C42.7132 13.5042 44.0532 14.2433 46.1303 14.2433Z" fill="white"/>
<path d="M47.0683 23.4141H35.4101C34.8406 24.0187 34.3046 24.657 33.7686 25.3288H45.5273C46.0298 24.657 46.5323 24.0187 47.0683 23.4141Z" fill="white"/>
<path d="M28.241 27.7811H24.7569C23.9194 27.7811 23.6514 28.0499 23.6514 28.8561V42.6291L11.4237 28.4194C11.2565 28.1915 11.0319 28.0123 10.7728 27.9002C10.5138 27.788 10.2297 27.7469 9.94967 27.7811H1.10552C0.335007 27.7811 0 28.1506 0 28.8561V53.11C0 53.8154 0.368507 54.1849 1.10552 54.1849H4.62308C5.39359 54.1849 5.6951 53.8154 5.6951 53.11V37.4558L19.3298 53.3787C19.7988 53.9162 20.0333 54.1849 21.0719 54.1849H28.2745C29.112 54.1849 29.3465 53.9162 29.3465 53.11V28.8561C29.313 28.0499 29.112 27.7811 28.241 27.7811Z" fill="white"/>
<path d="M71.1217 70.0407H85.9624C87.1707 69.4459 88.345 68.7842 89.48 68.0587H76.4483C74.7583 68.9308 72.9699 69.5962 71.1217 70.0407Z" fill="white"/>
<path d="M86.867 58.552H98.7932C99.1952 57.9137 99.5302 57.2419 99.8652 56.57H88.1065C87.738 57.2419 87.3025 57.9137 86.867 58.552Z" fill="white"/>
<path d="M41.8422 6.55056C42.3447 6.55056 42.8807 6.51697 43.3832 6.48338C42.2107 6.11386 41.7417 5.67715 41.6412 4.93811C38.1236 4.93811 36.7501 3.82956 35.9796 3.69519C35.9488 3.68599 35.9165 3.68305 35.8846 3.68655C35.8526 3.69005 35.8217 3.69991 35.7936 3.71556C35.7655 3.73121 35.7408 3.75232 35.721 3.77767C35.7012 3.80301 35.6866 3.83208 35.6781 3.86315V3.96393C35.6781 4.87093 38.4921 6.55056 41.8422 6.55056Z" fill="white"/>
<path d="M124.723 28.6209C124.659 28.3572 124.501 28.126 124.279 27.9713C124.056 27.8165 123.785 27.7488 123.517 27.7811H112.897C112.227 27.7811 111.791 27.9827 111.59 28.6209L102.713 53.2443C102.512 53.8826 102.679 54.1849 103.316 54.1849H107.269C107.939 54.1849 108.207 54.1177 108.475 53.3787L110.15 48.7093H120.636L122.21 52.8748C122.646 54.017 122.947 54.1849 123.885 54.1849H132.997C133.969 54.1849 134.203 53.8826 133.835 52.8412L124.723 28.6209ZM111.858 44.0735L115.342 34.3989L118.96 44.0735H111.858Z" fill="white"/>
<path d="M100.401 27.7811H89.3125C88.3075 27.7811 88.1065 28.1506 87.7715 28.8897L82.5119 41.7221L77.0848 28.8897C76.7498 28.0834 76.4483 27.7811 75.4098 27.7811H64.9911C64.1536 27.7811 63.8856 28.0499 63.8856 28.8561V53.11C63.8856 53.9162 64.1536 54.1849 64.9911 54.1849H68.4751C69.3127 54.1849 69.5807 53.9162 69.5807 53.11V37.4558L76.2808 53.0764C76.7498 54.0506 76.9173 54.1849 77.6543 54.1849H82.3444C83.3159 54.1849 83.5504 53.9834 83.9189 53.1436L90.284 37.523V53.1436C90.284 53.9498 90.552 54.2185 91.3895 54.2185H100.468C101.306 54.2185 101.473 53.9498 101.473 53.1436V28.8561C101.473 28.0499 101.239 27.7811 100.401 27.7811Z" fill="white"/>
<path d="M83.7849 62.3815H96.0126C96.5821 61.7433 97.0846 61.0714 97.5871 60.3996H85.4934C84.9601 61.0907 84.3897 61.7523 83.7849 62.3815Z" fill="white"/>
<path d="M79.4298 66.2111H92.026C92.8301 65.5728 93.5671 64.9346 94.3041 64.2291H81.9424C81.1428 64.9367 80.3039 65.5984 79.4298 66.2111Z" fill="white"/>
<path d="M43.3162 53.11V41.5205L50.6863 53.2443C51.1889 54.017 51.4234 54.1849 52.2609 54.1849H61.708C62.5121 54.1849 62.713 53.5803 62.2775 52.8748L55.3094 41.9908C59.095 40.9494 62.0095 39.0346 62.0095 34.6004C62.0095 30.4349 59.0615 27.7811 54.8404 27.7811H33.2326C32.395 27.7811 32.127 28.0499 32.127 28.8561V53.11C32.127 53.9162 32.395 54.1849 33.2326 54.1849H42.2777C43.0482 54.1513 43.3162 53.8826 43.3162 53.11ZM43.3162 31.0396H46.8338C49.3463 31.0396 50.9879 32.4169 50.9879 35.373C50.9879 38.3292 49.3463 39.6393 46.8338 39.6393H43.3162V31.0396Z" fill="white"/>
<path d="M50.8874 6.34901C50.4183 6.31541 50.1503 6.41619 50.1503 6.61774C50.1503 7.05445 51.4904 7.62552 52.8304 7.62552C53.919 7.67237 54.992 7.35314 55.8789 6.71853C55.6109 6.34901 55.3429 5.9459 55.0414 5.54279C53.7684 6.24823 52.6964 6.44979 50.8874 6.34901Z" fill="white"/>
<path d="M49.4133 7.12164C48.78 7.29551 48.1269 7.38586 47.4703 7.39039C46.5121 7.3522 45.5591 7.22853 44.6228 7.02086C44.3212 6.98727 44.2542 7.12164 44.2542 7.2896C44.2542 8.09583 46.3983 8.83487 48.6763 8.83487C49.6141 8.83492 50.5404 8.62851 51.3899 8.2302C50.3513 8.02865 49.6813 7.59194 49.4133 7.12164Z" fill="white"/>
<path d="M57.152 4.66938C56.6638 4.69322 56.1953 4.86939 55.8119 5.17326C56.0464 5.50919 56.2474 5.81152 56.4819 6.11386C56.9175 5.74434 57.3865 5.60997 57.688 5.97949C57.9895 6.34901 57.755 6.8193 57.2525 7.12163C57.5205 7.49115 57.755 7.82709 57.9895 8.09583C58.2809 7.92766 58.5257 7.68884 58.7012 7.40127C58.8768 7.1137 58.9776 6.78655 58.9945 6.44978C59.0035 6.21921 58.966 5.98919 58.8842 5.77351C58.8024 5.55784 58.6779 5.36095 58.5184 5.19468C58.3588 5.02841 58.1674 4.89618 57.9556 4.80591C57.7439 4.71564 57.5161 4.6692 57.286 4.66938H57.152Z" fill="white"/>
<path d="M58.7935 10.3801C58.559 10.145 58.3245 9.87624 58.09 9.6075L57.9895 9.47312C56.9647 10.223 55.7011 10.5696 54.4384 10.4473C54.1369 10.4137 53.9024 10.4137 53.9359 10.6153C53.9359 10.9512 54.8404 11.4887 56.1134 11.4887C57.1185 11.5223 57.956 11.0856 58.7935 10.3801Z" fill="white"/>
<path d="M47.1018 6.48337C47.9336 6.48616 48.7601 6.34993 49.5473 6.08027C48.3413 5.81153 47.9393 5.34122 47.7718 4.93811C45.7953 5.37481 43.9192 4.83733 43.1487 4.63578C42.9477 4.56859 42.5122 4.43423 42.5122 4.73656C42.5122 5.74434 44.6898 6.48337 47.1018 6.48337Z" fill="white"/>
<path d="M55.1419 12.2277C54.3379 12.0933 53.8689 11.959 53.2994 11.3207C52.3624 11.7868 51.3303 12.0283 50.2843 12.0262C49.6478 12.0598 48.7098 11.9254 48.4418 11.9254C48.2743 11.9254 48.1738 11.959 48.1738 12.1269C48.1738 12.4965 49.2793 13.3363 51.4569 13.3363C52.7653 13.3256 54.0437 12.9411 55.1419 12.2277Z" fill="white"/>
<path d="M43.2827 7.55835C41.3936 7.79224 39.4762 7.52585 37.7216 6.78571C37.4201 6.71853 37.3531 6.8529 37.3531 7.02086C37.3531 8.02864 39.8657 9.33875 42.9142 9.33875C43.7447 9.33979 44.5738 9.27238 45.3933 9.1372C44.2542 8.86846 43.3832 8.2302 43.2827 7.55835Z" fill="white"/>
<path d="M59.698 14.4448C60.837 14.3105 61.6075 13.5714 62.177 12.4965C61.7681 12.3896 61.3742 12.2316 61.0045 12.0262C60.6348 12.7274 60.0296 13.2747 59.296 13.5714C58.9945 13.7394 58.492 13.8066 58.492 13.9409C58.4585 14.2433 59.0615 14.512 59.698 14.4448Z" fill="white"/>
<path d="M51.5239 5.57638C52.6011 5.63655 53.6724 5.37966 54.6059 4.83734C54.3379 4.46782 54.1034 4.06471 53.8354 3.69519C52.636 4.30556 51.2883 4.56185 49.9493 4.43423C49.0448 4.40063 48.5758 4.36704 48.5758 4.60219C48.5758 5.20685 50.2173 5.57638 51.5239 5.57638Z" fill="white"/>
<path d="M58.157 13.2019C59.0187 12.9686 59.7679 12.432 60.2675 11.6902C59.9298 11.4628 59.6054 11.2161 59.296 10.9512C59.0122 11.3341 58.6502 11.6519 58.2343 11.8836C57.8184 12.1153 57.3581 12.2555 56.8839 12.2949C56.6159 12.3285 56.2809 12.3285 56.2809 12.4965C56.2809 12.7988 57.085 13.4035 58.157 13.2019Z" fill="white"/>
<path d="M48.4083 22.0032C49.0783 21.3313 49.8153 20.6931 50.5523 20.0884H38.9277C38.1906 20.6931 37.4871 21.3313 36.7836 22.0032H48.4083Z" fill="white"/>
<path d="M55.6109 13.0003C54.6342 13.6607 53.5026 14.0544 52.3279 14.1425C51.4904 14.2097 50.9209 14.1089 50.9209 14.3105C50.9209 14.6464 51.7919 15.1167 53.2994 15.1167C54.6796 15.0712 56.0221 14.6534 57.1855 13.9074C56.8691 13.8967 56.5601 13.8085 56.2856 13.6504C56.0111 13.4923 55.7794 13.2691 55.6109 13.0003Z" fill="white"/>
<path d="M55.9124 16.7963H43.8187C42.7607 17.3713 41.732 17.9992 40.7367 18.6775H52.4619C53.5679 17.9723 54.7208 17.3437 55.9124 16.7963Z" fill="white"/>
</g>
</svg>
