<svg width="16" height="16" viewBox="0 0 16 16" fill="none" xmlns="http://www.w3.org/2000/svg">
<g id="Essentials/zoom/search" clip-path="url(#clip0_1_3659)">
<path id="Icon" d="M14.0788 15.2578C14.4049 15.5838 14.9336 15.5838 15.2597 15.2578C15.5858 14.9317 15.5858 14.403 15.2597 14.0769L14.0788 15.2578ZM11.4813 6.82418C11.4813 9.39517 9.39713 11.4794 6.82613 11.4794V13.1494C10.3194 13.1494 13.1513 10.3175 13.1513 6.82418H11.4813ZM6.82613 11.4794C4.25514 11.4794 2.17094 9.39517 2.17094 6.82418H0.500938C0.500938 10.3175 3.33282 13.1494 6.82613 13.1494V11.4794ZM2.17094 6.82418C2.17094 4.25319 4.25514 2.16898 6.82613 2.16898V0.498984C3.33282 0.498984 0.500938 3.33087 0.500938 6.82418H2.17094ZM6.82613 2.16898C9.39713 2.16898 11.4813 4.25319 11.4813 6.82418H13.1513C13.1513 3.33087 10.3194 0.498984 6.82613 0.498984V2.16898ZM10.1573 11.3362L14.0788 15.2578L15.2597 14.0769L11.3381 10.1553L10.1573 11.3362Z" fill="#7B7B7B"/>
</g>
<defs>
<clipPath id="clip0_1_3659">
<rect width="16" height="16" fill="white"/>
</clipPath>
</defs>
</svg>
