<svg width="201" height="112" viewBox="0 0 201 112" fill="none" xmlns="http://www.w3.org/2000/svg">
<g clip-path="url(#clip0_1_3695)">
<path d="M13.694 50.4615C9.07807 50.4615 5.73406 49.5077 3.662 47.6C1.58995 45.6923 0.461597 42.5231 0.276958 38.0923C0.256443 37.4359 0.246185 36.7179 0.246185 35.9385C0.246185 35.1385 0.266701 34.3487 0.307731 33.5692C0.348762 32.7692 0.420566 32.041 0.523143 31.3846H9.20117C9.11911 32.8821 9.06782 34.359 9.0473 35.8154C9.02679 37.2718 9.07808 38.6051 9.20117 39.8154C9.30375 40.8205 9.73457 41.6 10.4936 42.1538C11.2732 42.6872 12.34 42.9538 13.694 42.9538C14.966 42.9538 15.9713 42.6872 16.7098 42.1538C17.4484 41.6 17.8792 40.8205 18.0023 39.8154C18.0843 39.1179 18.1356 38.4308 18.1561 37.7538C18.1972 37.0564 18.1972 36.3692 18.1561 35.6923C18.1356 34.9949 18.0843 34.2974 18.0023 33.6C17.9202 32.7385 17.5509 31.9487 16.8945 31.2308C16.238 30.5128 15.4173 30.0513 14.4326 29.8462L8.77034 28.5538C6.61622 28.0615 4.91344 27.2923 3.662 26.2462C2.41056 25.2 1.50788 23.8974 0.953967 22.3385C0.400051 20.7795 0.0923194 18.9744 0.0307732 16.9231C0.0102577 16.0205 0 15.2205 0 14.5231C0 13.8051 0.0102577 13.0667 0.0307732 12.3077C0.153866 9.37436 0.697524 7.00513 1.66175 5.2C2.62597 3.39487 4.08257 2.08205 6.03154 1.26154C8.00102 0.420513 10.5552 0 13.694 0C18.2895 0 21.613 0.953847 23.6645 2.86154C25.7366 4.74872 26.8649 7.89744 27.0496 12.3077C27.0906 13.1897 27.0906 14.2667 27.0496 15.5385C27.0291 16.8103 26.988 17.9897 26.9265 19.0769H18.0638C18.1254 17.6615 18.1664 16.2462 18.1869 14.8308C18.2074 13.4154 18.1869 12 18.1254 10.5846C18.1049 9.6 17.7048 8.84103 16.9252 8.30769C16.1662 7.77436 15.0891 7.50769 13.694 7.50769C12.4016 7.50769 11.3655 7.77436 10.586 8.30769C9.82689 8.84103 9.38581 9.6 9.26271 10.5846C9.13962 11.6308 9.07807 12.6872 9.07807 13.7538C9.07807 14.8205 9.13962 15.8769 9.26271 16.9231C9.36529 17.7436 9.65251 18.5026 10.1244 19.2C10.5962 19.8769 11.3553 20.3282 12.4016 20.5538L17.3868 21.6C19.7051 22.0923 21.572 22.8821 22.9875 23.9692C24.4236 25.0359 25.4802 26.3795 26.1572 28C26.8342 29.6205 27.2137 31.4872 27.2958 33.6C27.3163 34.0718 27.3265 34.5641 27.3265 35.0769C27.3265 35.5897 27.3163 36.1026 27.2958 36.6154C27.2753 37.1282 27.2547 37.6205 27.2342 38.0923C27.0496 42.5231 25.911 45.6923 23.8184 47.6C21.7258 49.5077 18.351 50.4615 13.694 50.4615Z" fill="white"/>
<path d="M45.5327 50.4615C40.7321 50.4615 37.2752 49.5077 35.1622 47.6C33.0696 45.6923 31.9925 42.5231 31.931 38.0923C31.8489 31.8974 31.8079 25.6513 31.8079 19.3538C31.8079 13.0359 31.8489 6.78975 31.931 0.615388H41.1629C41.0808 4.73846 41.0296 8.98462 41.009 13.3538C41.009 17.7231 41.0193 22.0923 41.0398 26.4615C41.0809 30.8308 41.1219 35.0769 41.1629 39.2C41.1629 40.3897 41.5322 41.3128 42.2707 41.9692C43.0298 42.6256 44.1171 42.9538 45.5327 42.9538C46.9277 42.9538 47.9945 42.6256 48.7331 41.9692C49.4717 41.3128 49.8409 40.3897 49.8409 39.2C49.882 35.0769 49.9127 30.8308 49.9333 26.4615C49.9743 22.0923 49.9845 17.7231 49.964 13.3538C49.964 8.98462 49.923 4.73846 49.8409 0.615388H59.0729C59.1755 6.78975 59.2267 13.0359 59.2267 19.3538C59.2267 25.6513 59.1755 31.8974 59.0729 38.0923C59.0113 42.5231 57.9343 45.6923 55.8417 47.6C53.7491 49.5077 50.3128 50.4615 45.5327 50.4615Z" fill="white"/>
<path d="M64.8178 49.8462V0.615388H77.3117C81.9072 0.615388 85.2204 1.54872 87.2514 3.41539C89.303 5.26154 90.4006 8.32821 90.5442 12.6154C90.5852 13.7641 90.6057 14.7692 90.6057 15.6308C90.6262 16.4923 90.6262 17.3538 90.6057 18.2154C90.6057 19.0769 90.5852 20.0821 90.5442 21.2308C90.4621 23.8974 90.0108 26.0821 89.1902 27.7846C88.3901 29.4872 87.1386 30.7897 85.4358 31.6923L91.2212 49.8462H81.4353L76.7578 33.2308H74.0498V49.8462H64.8178ZM74.0498 25.1077H77.3117C78.6042 25.1077 79.5787 24.8103 80.2352 24.2154C80.8917 23.6205 81.2507 22.7897 81.3122 21.7231C81.3738 20.7179 81.4148 19.6718 81.4353 18.5846C81.4558 17.4769 81.4558 16.3795 81.4353 15.2923C81.4148 14.1846 81.3738 13.1282 81.3122 12.1231C81.2507 11.0359 80.8917 10.2051 80.2352 9.63077C79.5787 9.0359 78.6042 8.73846 77.3117 8.73846H74.0498V25.1077Z" fill="white"/>
<path d="M100.997 49.8462L93.8576 0.615388H103.397L107.028 25.2923L107.582 41.7231H110.537L111.091 25.2923L114.722 0.615388H124.261L117.122 49.8462H100.997Z" fill="white"/>
<path d="M128.287 49.8462V0.615388H137.519V49.8462H128.287Z" fill="white"/>
<path d="M148.659 49.8462L141.52 0.615388H151.06L154.691 25.2923L155.245 41.7231H158.199L158.753 25.2923L162.384 0.615388H171.924L164.784 49.8462H148.659Z" fill="white"/>
<path d="M175.95 49.8462V0.615388H198.476V8.73846H185.182V20.7385H197.86V28.8615H185.182V41.7231H198.476V49.8462H175.95Z" fill="white"/>
<path d="M14.5249 112C9.72431 112 6.23669 111.046 4.06205 109.138C1.90793 107.231 0.738555 104.082 0.553916 99.6923C0.512886 98.9128 0.49237 98.2769 0.49237 97.7846C0.49237 97.2923 0.502628 96.7897 0.523143 96.2769C0.543659 95.7436 0.574432 95.0359 0.615463 94.1538C0.738555 91.5282 1.3335 89.4359 2.4003 87.8769C3.46711 86.3179 4.73906 84.9846 6.21617 83.8769C5.41607 82.2359 4.73906 80.6154 4.18515 79.0154C3.63123 77.4154 3.24144 75.8359 3.01577 74.2769C2.50288 70.5436 3.21066 67.4872 5.13911 65.1077C7.08808 62.7282 10.2782 61.5385 14.7096 61.5385C18.9563 61.5385 22.013 62.6154 23.88 64.7692C25.7469 66.9026 26.4649 69.9282 26.0341 73.8462C25.7879 75.7538 25.1622 77.6 24.1569 79.3846C23.1517 81.1487 21.7258 82.8513 19.8794 84.4923C19.5102 84.8 19.1204 85.1077 18.7101 85.4154C18.3203 85.7231 17.91 86.0308 17.4791 86.3385C18.0946 87.2205 18.7511 88.1231 19.4486 89.0462C20.1461 89.9487 20.8437 90.8308 21.5412 91.6923C21.5207 90.9744 21.4591 90.1846 21.3566 89.3231C21.2745 88.441 21.1514 87.4667 20.9873 86.4H28.4959C28.619 87.5692 28.7319 88.9436 28.8344 90.5231C28.937 92.082 28.9986 93.682 29.0191 95.3231C29.0396 96.9641 28.9883 98.482 28.8652 99.8769C30.0756 101.128 31.1937 102.267 32.2195 103.292C33.2658 104.318 34.1582 105.19 34.8967 105.908L28.9267 111.631C28.3113 111.015 27.7061 110.41 27.1111 109.815C26.5162 109.221 25.911 108.615 25.2955 108C24.557 108.923 23.6748 109.682 22.649 110.277C21.6233 110.851 20.4334 111.282 19.0793 111.569C17.7458 111.856 16.2277 112 14.5249 112ZM14.7711 104.738C15.5712 104.738 16.279 104.646 16.8945 104.462C17.5304 104.256 18.0638 103.949 18.4947 103.538C18.946 103.108 19.2845 102.564 19.5102 101.908C17.9715 100.185 16.4636 98.4513 14.9865 96.7077C13.5299 94.9436 12.1656 93.1692 10.8937 91.3846C10.5244 91.7744 10.2269 92.2359 10.0013 92.7692C9.79611 93.2821 9.66276 93.8667 9.60122 94.5231C9.53967 95.241 9.49864 95.8359 9.47813 96.3077C9.45761 96.759 9.45761 97.2513 9.47813 97.7846C9.49864 98.3179 9.53967 99.0359 9.60122 99.9385C9.7038 101.477 10.1551 102.667 10.9552 103.508C11.7759 104.328 13.0478 104.738 14.7711 104.738ZM13.3555 79.6308C14.4634 78.9128 15.3353 78.2154 15.9713 77.5385C16.6072 76.841 17.0688 76.1846 17.356 75.5692C17.6638 74.9538 17.8689 74.4 17.9715 73.9077C18.3408 72.0205 18.2998 70.4923 17.8484 69.3231C17.3971 68.1538 16.3508 67.5692 14.7096 67.5692C13.3966 67.5692 12.4734 68.1026 11.94 69.1692C11.4066 70.2154 11.1809 71.4462 11.263 72.8615C11.3245 73.8667 11.5399 74.9436 11.9092 76.0923C12.299 77.241 12.7811 78.4205 13.3555 79.6308Z" fill="white"/>
<path d="M46.1703 111.385V70.2769H37.6461V62.1538H63.9264V70.2769H55.4022V111.385H46.1703Z" fill="white"/>
<path d="M67.2821 111.385V62.1538H76.514V82.2769H84.2073V62.1538H93.4393V111.385H84.2073V90.4H76.514V111.385H67.2821Z" fill="white"/>
<path d="M99.6179 111.385V62.1538H112.112C116.707 62.1538 120.021 63.0872 122.052 64.9538C124.103 66.8 125.201 69.8667 125.344 74.1538C125.385 75.3026 125.406 76.3077 125.406 77.1692C125.426 78.0308 125.426 78.8923 125.406 79.7538C125.406 80.6154 125.385 81.6205 125.344 82.7692C125.262 85.4359 124.811 87.6205 123.99 89.3231C123.19 91.0256 121.939 92.3282 120.236 93.2308L126.021 111.385H116.235L111.558 94.7692H108.85V111.385H99.6179ZM108.85 86.6461H112.112C113.404 86.6461 114.379 86.3487 115.035 85.7538C115.692 85.159 116.051 84.3282 116.112 83.2615C116.174 82.2564 116.215 81.2103 116.235 80.1231C116.256 79.0154 116.256 77.9179 116.235 76.8308C116.215 75.7231 116.174 74.6667 116.112 73.6615C116.051 72.5743 115.692 71.7436 115.035 71.1692C114.379 70.5744 113.404 70.2769 112.112 70.2769H108.85V86.6461Z" fill="white"/>
<path d="M130.812 111.385V62.1538H140.044V111.385H130.812Z" fill="white"/>
<path d="M151.184 111.385L144.044 62.1538H153.584L157.215 86.8308L157.769 103.262H160.723L161.277 86.8308L164.908 62.1538H174.448L167.309 111.385H151.184Z" fill="white"/>
<path d="M178.474 111.385V62.1538H201V70.2769H187.706V82.2769H200.385V90.4H187.706V103.262H201V111.385H178.474Z" fill="white"/>
</g>
<defs>
<clipPath id="clip0_1_3695">
<rect width="201" height="112" fill="white"/>
</clipPath>
</defs>
</svg>
