<svg width="59" height="70" viewBox="0 0 59 70" fill="none" xmlns="http://www.w3.org/2000/svg">
<path d="M17.4068 68.9662C12.2112 68.9662 7.01477 68.9662 1.81756 68.9662C0.374599 68.9662 0.19842 68.7844 0.443676 67.3798C2.28032 56.9359 4.1233 46.4928 5.97265 36.0505C7.99502 24.5904 10.0095 13.1352 12.016 1.6847C12.2064 0.581605 12.5517 0.182002 13.7375 0.191574C22.3453 0.246609 30.9554 0.172431 39.5656 0.241823C44.2659 0.280108 48.7544 1.26595 52.6618 4.07035C56.6383 6.91303 58.5265 10.9091 58.9266 15.7091C59.2385 19.4467 58.3479 23.0503 57.7193 26.6778C56.2541 35.142 54.758 43.5967 53.2309 52.0418C52.2975 57.2103 50.3188 61.8093 45.7803 64.8745C42.5738 67.0224 38.8553 68.2721 35.0081 68.4949C29.1505 68.8825 23.2739 68.9495 17.4044 69.1505L17.4068 68.9662ZM25.8574 14.8285C23.543 27.9316 21.2119 41.1496 18.876 54.3508C19.0026 54.4068 19.1352 54.4478 19.2712 54.4729C22.8739 54.4729 26.4861 54.6021 30.0792 54.3987C35.2272 54.1092 36.9845 52.4844 37.9131 47.4069C39.2775 39.8886 40.5681 32.3536 41.842 24.8186C42.1867 22.8763 42.4109 20.9144 42.5134 18.9442C42.5801 17.3673 41.7015 16.1757 40.2347 15.5703C39.4037 15.2257 38.5012 14.8788 37.6155 14.8524C33.7604 14.7926 29.8982 14.8285 25.8574 14.8285Z" fill="white"/>
</svg>
