<svg width="56" height="69" viewBox="0 0 56 69" fill="none" xmlns="http://www.w3.org/2000/svg">
<path d="M18.7096 54.4944H44.3639C46.0307 54.4944 46.1283 54.5996 45.8592 56.2435C45.2282 60.072 44.5758 63.9006 43.9543 67.7291C43.8138 68.6264 43.4781 68.9997 42.4875 68.9973C28.9088 68.9638 15.3292 68.9558 1.74884 68.9734C0.30588 68.9734 0.170135 68.7843 0.417772 67.3726C3.10845 51.9819 5.79753 36.588 8.48503 21.191C9.6375 14.6011 10.8019 8.01367 11.9234 1.41665C12.0829 0.481051 12.4615 0.193911 13.414 0.196304C26.9944 0.229803 40.5739 0.23778 54.1527 0.220232C55.6338 0.220232 55.7171 0.342266 55.4552 1.80668C54.7599 5.69981 54.0479 9.58815 53.4193 13.4909C53.2669 14.4336 52.8574 14.6346 51.9906 14.6298C43.6829 14.6059 35.3775 14.6155 27.0697 14.6155H25.7601C25.0934 18.4584 24.441 22.2343 23.7481 26.2303H47.3212C48.969 26.2303 49.0571 26.3188 48.7809 27.9053C48.1237 31.65 47.3879 35.3804 46.8188 39.1396C46.6355 40.3527 46.1283 40.5753 45.0401 40.5753C37.5681 40.537 30.0961 40.5753 22.6242 40.5274C21.4812 40.5274 21.1098 40.8313 20.9288 41.9847C20.2883 46.1075 19.4859 50.2064 18.7096 54.4944Z" fill="white"/>
</svg>
