<svg width="56" height="69" viewBox="0 0 56 69" fill="none" xmlns="http://www.w3.org/2000/svg">
<path d="M25.7153 14.6179C25.0463 18.4751 24.3891 22.2749 23.7033 26.2327H47.3431C48.8694 26.2327 49.0099 26.381 48.7551 27.8765C48.0813 31.7745 47.3622 35.6628 46.7098 39.5631C46.555 40.4987 45.9954 40.5609 45.2549 40.5609C37.6662 40.5466 30.0776 40.5729 22.4913 40.5274C21.4507 40.5274 21.0817 40.7882 20.9102 41.8483C20.2626 45.8658 19.4816 49.8595 18.7672 53.8627C18.7527 54.0722 18.7527 54.2825 18.7672 54.492H44.3215C45.9716 54.492 46.0859 54.6116 45.8097 56.2579C45.1573 60.1582 44.4667 64.0513 43.8381 67.9564C43.7143 68.7197 43.3952 68.9758 42.6476 68.9734C28.9132 68.9622 15.182 68.9622 1.45403 68.9734C0.382525 68.9734 0.153934 68.4948 0.320613 67.5496C2.15884 57.0659 3.99311 46.5789 5.8234 36.0887C7.84577 24.5521 9.86338 13.0163 11.8762 1.48125C12.0334 0.571974 12.3239 0.193908 13.3049 0.1963C26.925 0.228205 40.545 0.235383 54.1651 0.217836C55.5294 0.217836 55.6485 0.349441 55.4223 1.65353C54.7365 5.58495 54.0079 9.51158 53.3721 13.4526C53.2245 14.369 52.8769 14.649 51.9792 14.649C43.6714 14.6203 35.3637 14.6322 27.0535 14.6322L25.7153 14.6179Z" fill="white"/>
</svg>
