<svg width="80" height="69" viewBox="0 0 80 69" fill="none" xmlns="http://www.w3.org/2000/svg">
<path d="M60.2618 34.775C59.9022 35.3852 59.5475 35.9953 59.1831 36.6031C54.7384 44.0815 50.2936 51.5607 45.8488 59.0407C45.3845 59.8255 44.8702 60.1581 43.9439 60.1485C39.4198 60.1079 34.9147 60.1007 30.4001 60.1485C29.3786 60.1605 29.0524 59.7944 28.8642 58.8277C27.2903 50.8213 25.6616 42.8245 23.8639 34.7965C23.5091 36.2538 23.1495 37.7062 22.7995 39.1658C20.5303 48.7036 18.2468 58.2391 16.0204 67.7864C15.7966 68.7436 15.3704 68.9829 14.4703 68.9829C10.07 68.947 5.66016 68.9709 1.26936 68.9637C-0.0354994 68.9637 -0.159318 68.7747 0.143085 67.4682C5.33236 45.5004 10.5161 23.5295 15.6942 1.55535C15.9323 0.583862 16.2586 0.179473 17.3301 0.19383C21.7748 0.257639 26.2133 0.257639 30.6453 0.19383C31.6835 0.179473 32.0978 0.490541 32.2907 1.51467C34.0289 10.7414 35.81 19.961 37.5792 29.1829C38.4173 33.5403 39.2602 37.8976 40.1508 42.5254C40.6699 41.628 41.0651 40.9533 41.4509 40.2713C48.753 27.2926 56.0551 14.3107 63.3573 1.32564C63.793 0.533612 64.2907 0.196223 65.2193 0.196223C69.6577 0.241687 74.0962 0.212973 78.5346 0.217759C79.7966 0.217759 79.9061 0.361328 79.7609 1.60321C78.4338 13.0537 77.1083 24.5042 75.7844 35.9546C74.57 46.4209 73.3485 56.8863 72.1198 67.3509C71.9317 68.9613 71.915 68.9613 70.3292 68.9613C66.0813 68.9613 61.8325 68.9613 57.583 68.9613C56.2877 68.9613 56.1067 68.7675 56.271 67.4945C57.5172 57.7988 58.768 48.103 60.0237 38.4073C60.1761 37.2228 60.3094 36.036 60.4523 34.8492L60.2618 34.775Z" fill="white"/>
</svg>
