<svg width="70" height="69" viewBox="0 0 70 69" fill="none" xmlns="http://www.w3.org/2000/svg">
<path d="M45.8345 46.5839C46.3536 43.6694 46.8798 40.7573 47.3918 37.8405C49.53 25.6323 51.6611 13.4217 53.7851 1.20867C53.916 0.464502 54.2232 0.201291 54.9757 0.206077C59.4165 0.237184 63.8549 0.206077 68.2933 0.222827C69.4839 0.222827 69.6648 0.423824 69.4482 1.67527C68.6052 6.54468 67.7433 11.4117 66.8908 16.2715L59.6974 57.4042C59.0807 60.9241 58.4569 64.4439 57.864 67.9686C57.7401 68.7175 57.3877 68.9807 56.6424 68.9784C50.8754 68.9576 45.1083 68.9576 39.3412 68.9784C38.4935 68.9784 38.2578 68.5357 38.0411 67.8609C35.1647 58.9723 32.2819 50.0846 29.3928 41.1976C27.6451 35.8185 25.8926 30.4419 23.9591 25.0652C23.5067 27.6662 23.0471 30.2648 22.6019 32.8658C20.6033 44.4838 18.6119 56.1025 16.6276 67.7221C16.4752 68.6194 16.1371 69.0023 15.1537 68.9903C10.7914 68.9377 6.42922 68.9712 2.05747 68.964C0.774046 68.964 0.581168 68.7247 0.800231 67.478C4.17826 48.2652 7.55152 29.0532 10.92 9.842C11.3962 7.06871 11.9106 4.30021 12.3487 1.51974C12.4963 0.574572 12.8106 0.182149 13.8631 0.194113C19.4016 0.253933 24.9425 0.244362 30.481 0.194113C31.412 0.194113 31.7882 0.483645 32.0549 1.37378C36.4711 16.1551 40.9103 30.9276 45.3726 45.6913C45.4607 45.9809 45.5631 46.2656 45.6583 46.5504L45.8345 46.5839Z" fill="white"/>
</svg>
