<svg width="60" height="71" viewBox="0 0 60 71" fill="none" xmlns="http://www.w3.org/2000/svg">
<path d="M34.869 0C39.7932 0.162712 44.5673 0.794419 49.0391 2.97429C56.7587 6.7406 60.5947 14.0004 59.1684 22.4734C57.5651 31.9953 55.8888 41.5044 54.1395 51.0007C53.0966 56.6526 50.7202 61.6297 46.0603 65.25C42.622 67.9204 38.6502 69.3513 34.419 70.0859C28.5162 71.1101 22.5872 71.4283 16.6701 70.2295C11.9792 69.2724 7.82179 67.2839 4.72871 63.4817C1.41894 59.4139 0.235514 54.7096 1.09034 49.5746C2.69998 39.8996 4.38184 30.2366 6.13593 20.5855C8.14084 9.57849 14.8485 2.91925 25.8469 1.02892C28.8305 0.516851 31.8616 0.332603 34.869 0ZM25.7945 56.6406C27.5494 56.4875 28.7638 56.4325 29.9615 56.2674C34.6952 55.6165 37.6311 53.0275 38.4217 48.6366C40.0265 39.7385 41.5846 30.8324 43.0958 21.9183C43.7125 18.3099 42.1957 16.0439 38.6455 15.1586C35.7253 14.4384 32.6789 14.4072 29.7448 15.0676C25.2469 16.0463 22.5181 18.7502 21.7585 23.4186C20.949 28.4053 19.9917 33.368 19.125 38.3451C18.4535 42.1999 17.7654 46.0524 17.1915 49.9216C16.7534 52.8935 18.0225 54.9609 20.8513 55.7673C22.6181 56.2697 24.4825 56.4181 25.7945 56.6406Z" fill="white"/>
</svg>
