<svg width="61" height="69" viewBox="0 0 61 69" fill="none" xmlns="http://www.w3.org/2000/svg">
<path d="M46.4973 45.6148L51.5715 54.832C53.8431 58.9604 56.1139 63.088 58.3839 67.2149C59.1506 68.6171 58.9553 68.964 57.4005 68.9664C52.4311 68.9664 47.4616 68.9497 42.4922 68.9832C41.5803 68.9832 41.0469 68.6745 40.6016 67.8705C37.0823 61.5223 33.513 55.2053 29.9913 48.8595C29.596 48.1416 29.1746 47.8258 28.3245 47.8449C25.6386 47.9047 22.9479 47.8665 20.1477 47.8665C19.7668 50.0559 19.3929 52.1735 19.0262 54.3079C18.2476 58.8543 17.4618 63.3744 16.7022 67.9136C16.5713 68.6936 16.226 68.9879 15.4117 68.9808C10.8875 68.9521 6.38243 68.9808 1.86781 68.964C0.605812 68.964 0.40104 68.7247 0.622485 67.4589C1.86861 60.3443 3.12106 53.2304 4.37988 46.1173C6.3086 35.1103 8.23254 24.0985 10.1517 13.0819C10.8438 9.11141 11.532 5.14091 12.2162 1.17041C12.3281 0.505203 12.6019 0.213278 13.3353 0.213278C22.517 0.234813 31.6986 0.174992 40.8778 0.258741C44.6043 0.294634 48.276 0.909591 51.7524 2.374C57.8886 4.96304 61.3912 10.1507 60.7221 16.7788C60.1211 22.3332 59.1667 27.8432 57.8648 33.275C56.5242 39.0585 52.7644 43.0066 47.264 45.2391C47.033 45.3348 46.8068 45.4617 46.4973 45.6148ZM22.7122 33.5573C27.6768 33.5573 32.5629 33.6961 37.4371 33.5023C40.2087 33.3922 42.0732 31.6503 42.6756 28.8889C43.328 25.8859 43.9114 22.8566 44.2995 19.8105C44.7067 16.6042 43.5351 15.0464 40.3349 14.8646C35.7631 14.6037 31.1723 14.6755 26.5887 14.6468C26.3506 14.6468 25.9505 15.0273 25.9053 15.2809C24.8147 21.3755 23.7646 27.4748 22.7122 33.5573Z" fill="white"/>
</svg>
