<svg width="56" height="69" viewBox="0 0 56 69" fill="none" xmlns="http://www.w3.org/2000/svg">
<path d="M18.6382 14.6181H2.24413C0.646396 14.6181 0.55592 14.5223 0.836893 12.9C1.51075 9.00448 2.21319 5.11135 2.8799 1.21344C3.00372 0.495587 3.31327 0.206055 4.07047 0.206055C20.805 0.225197 37.538 0.225197 54.2694 0.206055C55.3457 0.206055 55.5886 0.627192 55.4171 1.58911C54.7028 5.52053 53.9884 9.44955 53.3527 13.3905C53.186 14.4051 52.7383 14.6492 51.7692 14.6396C46.6093 14.5941 41.4494 14.6181 36.2919 14.6181H34.9489C34.4965 17.1616 34.0465 19.6597 33.6084 22.1603C31.4415 34.5567 29.2779 46.9555 27.1174 59.3568C26.6269 62.166 26.0935 64.9703 25.6602 67.7867C25.5173 68.7008 25.1458 68.9831 24.2505 68.9831C19.774 68.9496 15.2975 68.9688 10.821 68.9664C9.41133 68.9664 9.2399 68.7725 9.48753 67.344C10.4066 62.0224 11.3353 56.7031 12.2734 51.3863C14.3641 39.4748 16.4531 27.5641 18.5406 15.6542C18.5882 15.3551 18.6001 15.0488 18.6382 14.6181Z" fill="white"/>
</svg>
