<svg width="33" height="33" viewBox="0 0 33 33" fill="none" xmlns="http://www.w3.org/2000/svg">
<g id="Group">
<path id="Vector" d="M32.8106 16.4113C32.8106 24.6997 26.6686 31.552 18.6895 32.6639C17.9434 32.7674 17.1801 32.8215 16.4053 32.8215C15.511 32.8215 14.6327 32.7502 13.7774 32.6122C5.9662 31.3542 0 24.579 0 16.4113C0 7.34783 7.34567 0 16.4065 0C25.4673 0 32.8129 7.34783 32.8129 16.4113H32.8106Z" fill="white"/>
<path id="Vector_2" d="M18.6897 13.1787V16.7537H23.1109L22.4108 21.5695H18.6897V32.6648C17.9437 32.7683 17.1804 32.8223 16.4056 32.8223C15.5112 32.8223 14.6329 32.751 13.7777 32.6131V21.5695H9.7002V16.7537H13.7777V12.3795C13.7777 9.66575 15.9768 7.46484 18.6909 7.46484V7.46715C18.6989 7.46715 18.7058 7.46484 18.7139 7.46484H23.1121V11.6298H20.2382C19.3841 11.6298 18.6909 12.3232 18.6909 13.1775L18.6897 13.1787Z" fill="black"/>
</g>
</svg>
