<svg width="34" height="33" viewBox="0 0 34 33" fill="none" xmlns="http://www.w3.org/2000/svg">
<g id="Group">
<path id="Vector" d="M17.2562 0H17.1815C8.14143 0 0.812988 7.3306 0.812988 16.3734V16.4481C0.812988 25.4909 8.14143 32.8215 17.1815 32.8215H17.2562C26.2963 32.8215 33.6248 25.4909 33.6248 16.4481V16.3734C33.6248 7.3306 26.2963 0 17.2562 0Z" fill="white"/>
<g id="Group_2">
<path id="Vector_2" d="M22.2958 6.67773H12.1429C9.33802 6.67773 7.05615 8.96028 7.05615 11.766V21.0572C7.05615 23.8629 9.33802 26.1455 12.1429 26.1455H22.2958C25.1007 26.1455 27.3826 23.8629 27.3826 21.0572V11.766C27.3826 8.96028 25.1007 6.67773 22.2958 6.67773ZM8.85061 11.766C8.85061 9.95034 10.3278 8.47272 12.1429 8.47272H22.2958C24.111 8.47272 25.5882 9.95034 25.5882 11.766V21.0572C25.5882 22.8729 24.111 24.3505 22.2958 24.3505H12.1429C10.3278 24.3505 8.85061 22.8729 8.85061 21.0572V11.766Z" fill="black"/>
<path id="Vector_3" d="M17.2194 21.1437C19.8277 21.1437 21.9509 19.021 21.9509 16.4107C21.9509 13.8004 19.8289 11.6777 17.2194 11.6777C14.6099 11.6777 12.4878 13.8004 12.4878 16.4107C12.4878 19.021 14.6099 21.1437 17.2194 21.1437ZM17.2194 13.4739C18.8391 13.4739 20.1565 14.7916 20.1565 16.4119C20.1565 18.0321 18.8391 19.3498 17.2194 19.3498C15.5996 19.3498 14.2823 18.0321 14.2823 16.4119C14.2823 14.7916 15.5996 13.4739 17.2194 13.4739Z" fill="black"/>
<path id="Vector_4" d="M22.3891 12.4431C23.0915 12.4431 23.664 11.8716 23.664 11.1678C23.664 10.4641 23.0926 9.89258 22.3891 9.89258C21.6856 9.89258 21.1143 10.4641 21.1143 11.1678C21.1143 11.8716 21.6856 12.4431 22.3891 12.4431Z" fill="black"/>
</g>
</g>
</svg>
