<svg width="34" height="33" viewBox="0 0 34 33" fill="none" xmlns="http://www.w3.org/2000/svg">
<g id="Group">
<path id="Vector" d="M17.0678 0H16.9931C7.95297 0 0.624512 7.3306 0.624512 16.3734V16.4481C0.624512 25.4909 7.95297 32.8215 16.9931 32.8215H17.0678C26.1079 32.8215 33.4363 25.4909 33.4363 16.4481V16.3734C33.4363 7.3306 26.1079 0 17.0678 0Z" fill="white"/>
<g id="Group_2">
<path id="Vector_2" d="M8.44943 10.9085C8.0172 10.5071 7.80225 10.0104 7.80225 9.41935C7.80225 8.8283 8.01835 8.30969 8.44943 7.90723C8.88167 7.50592 9.43805 7.30469 10.1197 7.30469C10.8014 7.30469 11.336 7.50592 11.7671 7.90723C12.1993 8.30854 12.4143 8.81335 12.4143 9.41935C12.4143 10.0253 12.1981 10.5071 11.7671 10.9085C11.3348 11.3098 10.7865 11.511 10.1197 11.511C9.453 11.511 8.88167 11.3098 8.44943 10.9085ZM12.051 13.2105V25.5144H8.16435V13.2105H12.051Z" fill="black"/>
<path id="Vector_3" d="M24.9895 14.4267C25.8367 15.3467 26.2598 16.6093 26.2598 18.2168V25.2979H22.5686V18.7159C22.5686 17.9052 22.3582 17.275 21.9386 16.8266C21.519 16.3781 20.9534 16.1527 20.2453 16.1527C19.5372 16.1527 18.9716 16.377 18.552 16.8266C18.1324 17.275 17.922 17.9052 17.922 18.7159V25.2979H14.209V13.1768H17.922V14.7844C18.2979 14.2485 18.8049 13.8254 19.4418 13.5137C20.0786 13.2021 20.7948 13.0469 21.5914 13.0469C23.01 13.0469 24.1434 13.5068 24.9895 14.4256V14.4267Z" fill="black"/>
</g>
</g>
</svg>
