<svg width="34" height="33" viewBox="0 0 34 33" fill="none" xmlns="http://www.w3.org/2000/svg">
<g id="Group">
<path id="Vector" d="M33.1552 16.411C33.1552 7.37336 25.8309 0.046875 16.7959 0.046875C7.76086 0.046875 0.436523 7.37336 0.436523 16.411C0.436523 25.4487 7.76086 32.7752 16.7959 32.7752C25.8309 32.7752 33.1552 25.4487 33.1552 16.411Z" fill="white"/>
<path id="Vector_2" d="M27.097 13.0204C26.9683 11.7774 26.6912 10.4033 25.6716 9.68115C24.8818 9.12115 23.8438 9.10045 22.8747 9.1016C20.8262 9.1016 18.7765 9.10506 16.728 9.10621C14.7577 9.10851 12.7873 9.10965 10.817 9.11195C9.99392 9.11195 9.19382 9.04871 8.42937 9.40518C7.77297 9.71105 7.25912 10.2929 6.94989 10.9403C6.5211 11.8407 6.43144 12.8606 6.37971 13.8564C6.2843 15.6698 6.29465 17.4878 6.40845 19.3C6.49237 20.6224 6.70503 22.0839 7.72699 22.9268C8.63284 23.6731 9.91114 23.7099 11.086 23.711C14.8152 23.7145 18.5455 23.7179 22.2758 23.7202C22.754 23.7214 23.2529 23.7122 23.7403 23.6593C24.699 23.5558 25.6129 23.281 26.2291 22.5703C26.851 21.8539 27.0108 20.857 27.1051 19.9129C27.335 17.6223 27.3327 15.3099 27.097 13.0204ZM14.5715 19.622V13.1998L20.1307 16.4103L14.5715 19.622Z" fill="black"/>
</g>
</svg>
