<svg width="22" height="22" viewBox="0 0 22 22" fill="none" xmlns="http://www.w3.org/2000/svg">
<path id="Icon (Stroke)" fill-rule="evenodd" clip-rule="evenodd" d="M4.16146 8.60109e-07H11.8385C12.3657 -1.70213e-05 12.8205 -3.25181e-05 13.195 0.0305712C13.5904 0.0628723 13.9836 0.134188 14.362 0.326982C14.9265 0.614602 15.3854 1.07354 15.673 1.63803C15.8658 2.01641 15.9371 2.40963 15.9694 2.80497C16 3.17955 16 3.63432 16 4.16148V6L17.8385 6C18.3657 5.99998 18.8205 5.99997 19.195 6.03057C19.5904 6.06287 19.9836 6.13419 20.362 6.32698C20.9265 6.6146 21.3854 7.07355 21.673 7.63803C21.8658 8.01641 21.9371 8.40963 21.9694 8.80497C22 9.17954 22 9.6343 22 10.1614V17.8386C22 18.3657 22 18.8205 21.9694 19.195C21.9371 19.5904 21.8658 19.9836 21.673 20.362C21.3854 20.9265 20.9265 21.3854 20.362 21.673C19.9836 21.8658 19.5904 21.9371 19.195 21.9694C18.8205 22 18.3657 22 17.8386 22H10.1614C9.6343 22 9.17954 22 8.80497 21.9694C8.40963 21.9371 8.01641 21.8658 7.63803 21.673C7.07355 21.3854 6.6146 20.9265 6.32698 20.362C6.13419 19.9836 6.06287 19.5904 6.03057 19.195C5.99997 18.8205 5.99998 18.3657 6 17.8385L6 16H4.16148C3.63432 16 3.17955 16 2.80497 15.9694C2.40963 15.9371 2.01641 15.8658 1.63803 15.673C1.07354 15.3854 0.614602 14.9265 0.326982 14.362C0.134188 13.9836 0.0628723 13.5904 0.0305713 13.195C-3.25181e-05 12.8205 -1.70213e-05 12.3657 8.6011e-07 11.8385V4.16146C-1.70213e-05 3.63431 -3.25181e-05 3.17955 0.0305712 2.80497C0.0628723 2.40963 0.134188 2.01641 0.326982 1.63803C0.614602 1.07354 1.07354 0.614602 1.63803 0.326982C2.01641 0.134188 2.40963 0.0628723 2.80497 0.0305712C3.17955 -3.25181e-05 3.63431 -1.70213e-05 4.16146 8.60109e-07ZM8 16V17.8C8 18.3766 8.00078 18.7488 8.02393 19.0322C8.04612 19.3038 8.0838 19.4046 8.109 19.454C8.20487 19.6422 8.35785 19.7951 8.54601 19.891C8.59546 19.9162 8.69617 19.9539 8.96784 19.9761C9.25117 19.9992 9.62345 20 10.2 20H17.8C18.3766 20 18.7488 19.9992 19.0322 19.9761C19.3038 19.9539 19.4046 19.9162 19.454 19.891C19.6422 19.7951 19.7951 19.6422 19.891 19.454C19.9162 19.4046 19.9539 19.3038 19.9761 19.0322C19.9992 18.7488 20 18.3766 20 17.8V10.2C20 9.62345 19.9992 9.25117 19.9761 8.96784C19.9539 8.69617 19.9162 8.59546 19.891 8.54601C19.7951 8.35785 19.6422 8.20487 19.454 8.109C19.4046 8.0838 19.3038 8.04612 19.0322 8.02393C18.7488 8.00078 18.3766 8 17.8 8H16V11.8385C16 12.3657 16 12.8205 15.9694 13.195C15.9371 13.5904 15.8658 13.9836 15.673 14.362C15.3854 14.9265 14.9265 15.3854 14.362 15.673C13.9836 15.8658 13.5904 15.9371 13.195 15.9694C12.8205 16 12.3657 16 11.8385 16H8ZM14 11.8C14 12.3766 13.9992 12.7488 13.9761 13.0322C13.9539 13.3038 13.9162 13.4045 13.891 13.454C13.7951 13.6422 13.6422 13.7951 13.454 13.891C13.4045 13.9162 13.3038 13.9539 13.0322 13.9761C12.7488 13.9992 12.3766 14 11.8 14H4.2C3.62345 14 3.25117 13.9992 2.96784 13.9761C2.69617 13.9539 2.59546 13.9162 2.54601 13.891C2.35785 13.7951 2.20487 13.6422 2.109 13.454C2.0838 13.4045 2.04612 13.3038 2.02393 13.0322C2.00078 12.7488 2 12.3766 2 11.8V4.2C2 3.62345 2.00078 3.25117 2.02393 2.96784C2.04612 2.69617 2.0838 2.59546 2.109 2.54601C2.20487 2.35785 2.35785 2.20487 2.54601 2.109C2.59546 2.0838 2.69617 2.04612 2.96784 2.02393C3.25117 2.00078 3.62345 2 4.2 2H11.8C12.3766 2 12.7488 2.00078 13.0322 2.02393C13.3038 2.04612 13.4045 2.0838 13.454 2.109C13.6422 2.20487 13.7951 2.35785 13.891 2.54601C13.9162 2.59546 13.9539 2.69617 13.9761 2.96784C13.9992 3.25118 14 3.62345 14 4.2V11.8Z" fill="#9D9D9D"/>
</svg>
