<svg width="26" height="20" viewBox="0 0 26 20" fill="none" xmlns="http://www.w3.org/2000/svg">
<path id="Icon (Stroke)" fill-rule="evenodd" clip-rule="evenodd" d="M7.17599 4.79212e-07H18.8233C19.7177 -1.36934e-05 20.4559 -2.53469e-05 21.0572 0.049105C21.6818 0.100133 22.2559 0.209649 22.7952 0.484416C23.6314 0.91052 24.3114 1.59043 24.7375 2.42671C25.0026 2.94709 25.1139 3.49993 25.1672 4.09923C25.2266 4.28078 25.237 4.47228 25.2017 4.6551C25.2219 5.15524 25.2219 5.73373 25.2219 6.39853V13.6015C25.2219 14.4959 25.2219 15.234 25.1728 15.8354C25.1217 16.4599 25.0122 17.034 24.7375 17.5733C24.3114 18.4096 23.6314 19.0895 22.7952 19.5156C22.2559 19.7904 21.6818 19.8999 21.0572 19.9509C20.4559 20 19.7178 20 18.8234 20H7.17597C6.28157 20 5.5434 20 4.94208 19.9509C4.31752 19.8999 3.74341 19.7904 3.20415 19.5156C2.36787 19.0895 1.68796 18.4096 1.26185 17.5733C0.987087 17.034 0.877571 16.4599 0.826543 15.8354C0.777413 15.234 0.777424 14.4959 0.777439 13.6014V6.39856C0.777428 5.73374 0.777419 5.15525 0.797591 4.65511C0.762306 4.47228 0.772721 4.28077 0.832123 4.09922C0.885443 3.49992 0.996708 2.94709 1.26185 2.42671C1.68796 1.59043 2.36787 0.91052 3.20415 0.484416C3.74341 0.209649 4.31752 0.100133 4.94208 0.049105C5.5434 -2.53469e-05 6.28158 -1.36934e-05 7.17599 4.79212e-07ZM2.99966 6.57851V13.5556C2.99966 14.5073 3.00053 15.1543 3.04138 15.6544C3.08118 16.1415 3.15332 16.3906 3.24187 16.5644C3.45492 16.9826 3.79488 17.3225 4.21302 17.5356C4.38679 17.6241 4.63591 17.6963 5.12304 17.7361C5.62314 17.7769 6.27013 17.7778 7.22188 17.7778H18.7774C19.7292 17.7778 20.3762 17.7769 20.8763 17.7361C21.3634 17.6963 21.6125 17.6241 21.7863 17.5356C22.2044 17.3225 22.5444 16.9826 22.7575 16.5644C22.846 16.3906 22.9181 16.1415 22.9579 15.6544C22.9988 15.1543 22.9997 14.5073 22.9997 13.5556V6.57851L15.6758 11.7052C15.6327 11.7354 15.59 11.7654 15.5477 11.7951C14.9425 12.22 14.4111 12.5932 13.8059 12.744C13.2765 12.876 12.7228 12.876 12.1934 12.744C11.5882 12.5932 11.0568 12.22 10.4517 11.7951C10.4093 11.7654 10.3666 11.7354 10.3235 11.7052L2.99966 6.57851ZM22.9077 3.93032L14.4015 9.88468C13.5915 10.4516 13.4199 10.55 13.2684 10.5878C13.0919 10.6318 12.9074 10.6318 12.7309 10.5878C12.5794 10.55 12.4078 10.4516 11.5979 9.88468L3.09163 3.93032C3.13132 3.70013 3.18296 3.55118 3.24187 3.43558C3.45492 3.01744 3.79488 2.67748 4.21302 2.46443C4.38679 2.37589 4.63591 2.30375 5.12304 2.26395C5.62314 2.22309 6.27013 2.22222 7.22188 2.22222H18.7774C19.7292 2.22222 20.3762 2.22309 20.8763 2.26395C21.3634 2.30375 21.6125 2.37589 21.7863 2.46443C22.2044 2.67748 22.5444 3.01744 22.7575 3.43558C22.8164 3.55118 22.868 3.70013 22.9077 3.93032Z" fill="#9D9D9D"/>
</svg>
