<svg width="26" height="26" viewBox="0 0 26 26" fill="none" xmlns="http://www.w3.org/2000/svg">
<g id="Group">
<path id="Vector" d="M16.8684 18.8018C11.7918 18.8018 7.66155 14.669 7.66016 9.59086C7.66155 8.30361 8.7094 7.25684 9.99349 7.25684C10.1255 7.25684 10.2561 7.26796 10.3812 7.2902C10.6564 7.33607 10.9177 7.42921 11.1581 7.56961C11.1928 7.59047 11.2164 7.62383 11.222 7.66276L11.7584 11.0449C11.7654 11.0838 11.7529 11.1242 11.7265 11.1534C11.4305 11.4814 11.0525 11.7177 10.6314 11.8359L10.4285 11.8929L10.5049 12.0889C11.197 13.8516 12.6062 15.2598 14.3697 15.9548L14.5657 16.0327L14.6226 15.8297C14.7408 15.4085 14.977 15.0304 15.305 14.7343C15.3286 14.7121 15.3606 14.701 15.3925 14.701C15.3995 14.701 15.4064 14.701 15.4148 14.7023L18.7959 15.2389C18.8362 15.2459 18.8696 15.2681 18.8905 15.3029C19.0294 15.5434 19.1225 15.8061 19.1698 16.0814C19.192 16.2037 19.2017 16.333 19.2017 16.4678C19.2017 17.7537 18.1553 18.8004 16.8684 18.8018Z" fill="#9D9D9D"/>
<path id="Vector_2" d="M25.8724 11.8851C25.5986 8.79071 24.1811 5.9201 21.8811 3.80294C19.5672 1.67327 16.5654 0.5 13.4261 0.5C6.53587 0.5 0.929771 6.10776 0.929771 13C0.929771 15.3132 1.56764 17.5666 2.7753 19.5294L0.0820312 25.493L8.70522 24.5742C10.2047 25.1886 11.7918 25.5 13.4247 25.5C13.8541 25.5 14.2947 25.4778 14.7366 25.4319C15.1257 25.3902 15.519 25.329 15.9053 25.2512C21.6754 24.0848 25.8877 18.9622 25.921 13.0667V13C25.921 12.6247 25.9043 12.2493 25.871 11.8865L25.8724 11.8851ZM9.03737 21.9566L4.26648 22.4654L5.69094 19.3084L5.40604 18.9261C5.38519 18.8983 5.36435 18.8705 5.34073 18.8385C4.10388 17.1301 3.4507 15.1116 3.4507 13.0014C3.4507 7.49928 7.92559 3.02308 13.4261 3.02308C18.5791 3.02308 22.947 7.04471 23.3681 12.1784C23.3903 12.4537 23.4029 12.7303 23.4029 13.0028C23.4029 13.0806 23.4015 13.1571 23.4001 13.2391C23.2945 17.8418 20.08 21.7508 15.5829 22.7462C15.2397 22.8226 14.8881 22.881 14.5379 22.9185C14.1737 22.9602 13.7999 22.9811 13.4289 22.9811C12.1072 22.9811 10.8231 22.7253 9.60993 22.2193C9.47513 22.1651 9.34309 22.1067 9.21941 22.0469L9.03876 21.9594L9.03737 21.9566Z" fill="#9D9D9D"/>
</g>
</svg>
